<svg xmlns="http://www.w3.org/2000/svg" width="1920" height="120" viewBox="-277 0 1920 120"><g data-name="Barra" transform="translate(-277)" clip-path="url(&quot;#a&quot;)"><path d="m584.906 109.832 2.403-.628-.698-.787c-7.514-1.096-16.179-1.38-24.702-.275l-.555.604 1.294.58c5.584.326 14.886.801 14.886.801 3.676-.247 5.524-.27 7.372-.295" fill="#f2c77c" fill-rule="evenodd" data-name="Trazado 1"/><path d="M429.288 96.138s-.022-.198-.042-.397c-6.816-.31-14.25-.61-21.663-.712l-3.614.842c1.272.382 3.777.747 3.777.747 7.413.103 14.169-.184 21.542-.48" fill="#f2c77c" fill-rule="evenodd" data-name="Trazado 2"/><path d="m506.527 109.46-1.232.017.657.39.575-.406Z" fill="#f2c77c" fill-rule="evenodd" data-name="Trazado 3"/><path d="M608.671 100.965s-.576.406.061.596l1.293.58 2.485.167c6.756-.287 11.603-1.147 22.671-1.49-12.464-1.23-19.876-1.333-26.51.147" fill="#f2c77c" fill-rule="evenodd" data-name="Trazado 4"/><path d="M609.344 107.524s-.555.604-1.151.81c1.273.382 3.778.747 3.778.747l2.978-1.034-5.605-.523Z" fill="#f2c77c" fill-rule="evenodd" data-name="Trazado 5"/><path d="m671.48 81.838-3.08.04c-15.381.4-31.418.41-46.121 1.397-15.32.996-30.802.402-46.101 1.596-15.319.996-32.67.227-49.344.046-19.178-.546-38.194.498-59.058 1.565 21.826 2.304 22.483 2.693 34.106 1.745 20.803-1.664 39.961-1.316 59.919.812 3.121.357 7.433.301 14.25.61 0 0 3.101.159 1.971 1.168l-4.868.661c-16.159-1.182-32.649.425-49.303.443-3.696.048-7.311.892-11.562 1.544 0 0-1.15.81.183 1.789 0 0 1.951.97 3.799.945 18.481-.24 36.941-.68 55.423-.921 8.604-.311 17.208-.622 25.853-.536 25.338.466 48.585-1.429 71.134-4.111 4.271-.454 4.785-1.455 1.603-2.409-5.728-1.717-6.507-3.298 3.207-4.818l-.122-1.193-1.889-.373Z" fill="#f2c77c" fill-rule="evenodd" data-name="Trazado 6"/><path d="M12.385 115.104c-3.06.239-6.119.477-7.927.9l-3.491 2.034 3.201 1.153c20.37.133 40.246 1.465 61.11.398 20.247-1.06 40.577-1.325 60.866-1.987 12.915-.367 25.217-.727 37.516-1.086 7.988-.303 9.735-1.322 8.833-4.096-.839-2.178.312-2.989 7.047-3.474 4.907-.263 9.855-.129 14.765-.392l1.827-.223c-.678-.588-2.586-1.16-2.586-1.16-9.282-.278-19.159-.347-26.571-.45-7.989.303-14.149.383-19.653.853-4.313.056-5.463.867-5.957 2.068-.248 3.585-4.418 5.033-16.082 5.582-22.095 1.084-44.273 1.373-66.634-.126-14.907-1-30.944-.99-46.264.006" fill="#f2c77c" fill-rule="evenodd" data-name="Trazado 7"/><path d="m199.33 115.454.06.596 1.828-.223-1.889-.373Z" fill="#f2c77c" fill-rule="evenodd" data-name="Trazado 8"/><path d="M.212 110.685s1.293.58 2.566.961c3.798.946 13.018.627 13.018.627 3.482-.534 8.942-1.894 10.806-2.369-7.534-.11-14.608-.379-22.2-.468-1.232.016-4.19 1.249-4.19 1.249" fill="#f2c77c" fill-rule="evenodd" data-name="Trazado 9"/><path d="m112.906 108.818-5.687-1.32c-12.937.17-25.257.33-37.557.69l-.576.405c12.998.428 25.976.657 39.569.877 1.232-.016 4.251-.652 4.251-.652" fill="#f2c77c" fill-rule="evenodd" data-name="Trazado 10"/><path d="M249.487 99.278c.616-.008 1.171-.613 1.171-.613l-6.899-1.104s-3.676.247-8.604.312l1.971 1.167c3.757.549 8.13 1.09 12.361.238" fill="#f2c77c" fill-rule="evenodd" data-name="Trazado 11"/><path d="m228.084 107.119 1.909.572 4.312-.057c10.473-.135 14.169-.184 17.845-.43l2.958-1.233-1.889-.374c-7.556-1.494-16.775-1.175-25.196.926l.061.596Z" fill="#f2c77c" fill-rule="evenodd" data-name="Trazado 12"/><path d="m354.183 109.655-3.304-2.146c-1.375-1.375-5.092-1.526-9.383-1.27-6.736.485-10.926 1.733-10.763 3.323l5.809 2.512c3.758.548 10.555.658 10.555.658 11.068-.343 11.602-1.146 7.086-3.077" fill="#f2c77c" fill-rule="evenodd" data-name="Trazado 13"/><path d="M1232.266 88.462c-1.151.81 3.243 1.55 8.767 1.278l2.2-2.615s-4.313.056-7.989.303l-2.978 1.034Z" fill="#f2c77c" fill-rule="evenodd" data-name="Trazado 14"/><path d="m1236.755 72.084 1.273.381-.102-.993-1.17.612Z" fill="#f2c77c" fill-rule="evenodd" data-name="Trazado 15"/><path d="m1319.539 85.334-.102-.994c-15.956.806-31.932 1.412-47.888 2.217l-3.512 1.837 3.777.747c17.27-.026 35.216.535 47.725-3.807" fill="#f2c77c" fill-rule="evenodd" data-name="Trazado 16"/><path d="M1206.372 88.6c-2.484-.167-4.949-.135-8.625.112 0 0-.534.803-1.11 1.209 3.162.755 12.301-.36 12.301-.36.596-.207-2.566-.962-2.566-.962" fill="#f2c77c" fill-rule="evenodd" data-name="Trazado 17"/><path d="m1122.2 91.886 1.13-1.01-1.848.024-1.171.613 1.889.373Z" fill="#f2c77c" fill-rule="evenodd" data-name="Trazado 18"/><path d="m1084.169 93.973 1.807-.421-3.777-.747-1.192.414c.637.19 3.162.754 3.162.754" fill="#f2c77c" fill-rule="evenodd" data-name="Trazado 19"/><path d="m1183.695 71.98-2.566-.962c-7.413-.102-12.259.757-13.905 2.769 0 0-.574.405-.473 1.399l.143 1.39c.657.39 3.86 1.543 3.86 1.543 1.252.182 5.564.126 5.564.126l2.979-1.034c-2.052-1.963-5.336-3.91 4.398-5.231" fill="#f2c77c" fill-rule="evenodd" data-name="Trazado 20"/><path d="M1573.049 67.105s1.212-.214 1.191-.414l-1.374-1.375c-8.829-1.875-18.726-2.144-29.733-1.204-1.212.215-3.594 1.042-3.594 1.042.04.398 1.99 1.367 1.99 1.367 8.706.683 16.776 1.175 22.361 1.5 4.888-.462 9.159-.916 9.159-.916" fill="#f2c77c" fill-rule="evenodd" data-name="Trazado 21"/><path d="M1661.881 67.141a8840.796 8840.796 0 0 1 102.201-1.929l.02.199c29.549-.583 58.42-1.756 88.032-1.744 22.644.104 45.252-.146 67.866-.337v-2.272c-28.84.018-57.612.017-86.612.266-30.843.004-62.24.613-93.638 1.22-17.228.424-34.477.648-52.424.087-8.644-.087-17.269.026-25.893.137-3.697.05-7.989.303-11.644.75-1.808.421-4.745 1.852-4.745 1.852l5.092 1.526c3.736.35 8.048.293 11.745.245" fill="#f2c77c" fill-rule="evenodd" data-name="Trazado 22"/><path d="M3.458 103.908c8.652 1.048 16.591.933 24.994-.557 7.887-1.296 17.066-2.013 25.217-.726 15.009 1.994 30.349 1.197 45.709.599 18.44-.639 36.203-1.865 54.705-1.907 16.653-.018 32.034-.418 46.04-2.192-15.03-2.193-31.765-2.97-48.52-3.945-7.454-.5-11.089.145-13.37 1.965l-4.968-.333s-1.294-.58-.718-.986c1.089-1.407 5.299-2.457 10.227-2.522 10.432-.533 21.5-.876 31.973-1.013 13.533-.375 27.126-.154 40.659-.53 31.952-1.212 33.143-1.626 46.936 6.553l9.383 1.27c17.065-2.013 34.416-1.244 51.747-.673 28.46.822 28.439.624 50.148-4.237 1.191-.412 3.574-1.24 3.574-1.24 4.725-2.051 12.056-2.744 20.044-3.048l25.751-1.528c5.524-.272 17.168-1.02 17.168-1.02.595-.207 1.725-1.217 1.725-1.217s-1.273-.381-1.888-.373c-21.582.082-8.423-4.19-8.423-4.19 3.676-.248 33.685-2.11 75.575-2.656 52.363-.682 105.301-1.77 157.644-2.65l52.362-.684c19.714-.256 38.79-.704 58.483-1.16 6.777-.087 13.512-.574 20.289-.662 28.337-.369 56.079-.531 84.396-1.1l131.032-3.498c14.744-.59 29.55-.584 43.657-1.365 44.212-1.969 89.223-2.157 134.153-3.141 45.546-.992 91.214-.79 136.576-3.57 5.524-.272 11.705-.153 17.229-.424l70.167-1.512c21.541-.48 42.466-.951 64.027-1.232 40.658-.53 82.014-.273 122.632-1.2 52.302-1.279 104.786-.768 157.786-1.26 36.962-.481 73.985-.367 110.947-.848 17.155-.166 34.309-.367 51.474-.58V0H0v102.666c1.263.375 2.397.805 3.458 1.242m92.763-7.41 9.363 1.072-1.171.613c-3.04.438-8.645-.087-8.645-.087l.453-1.598Z" fill="#f2c77c" fill-rule="evenodd" data-name="Trazado 23"/><path d="M1340.412 72.326c1.746-1.018-1.517-2.767-4.638-3.124-6.222-.516-14.744.59-15.813 2.196-.494 1.2 2.688 2.154 8.869 2.273 4.332.143 9.917.468 11.582-1.345" fill="#f2c77c" fill-rule="evenodd" data-name="Trazado 24"/><path d="M1614.96 66.758c2.444-.23 6.12-.477 6.12-.477 1.211-.215 1.109-1.21 1.109-1.21-4.434-1.135-9.423-1.667-15.502-.792l-2.302 1.622s1.294.58 2.546.762l8.029.095Z" fill="#f2c77c" fill-rule="evenodd" data-name="Trazado 25"/><path d="M1137.487 78.551c1.212-.214-.204-1.987-.204-1.987-12.484-1.43-24.967-2.86-39.054-1.879l-6.161.08c-20.349.066-34.518.251-53.02.293 0 0-3.635.644-7.31.892l-1.171.612 2.606 1.358c5.626.723 11.11.055 16.593-.614 9.159-.915 10.411-.732 9.627 3.656 0 0 .718.986 5.031.93 8.028.094 15.38-.4 23.389-.505 13.552-.176 26.326-1.934 39.98-1.117 3.101.158 7.311-.892 9.694-1.719" fill="#f2c77c" fill-rule="evenodd" data-name="Trazado 26"/><path d="M1432.038 69.54c10.493.061 21.006.323 31.499.385 8.645.086 15.895-1.4 14.52-2.776-2.668-1.955-8.233-2.082-14.393-2.002-11.725-.046-22.813.098-37.374 2.477 0 0-9.302-.476-6.552 2.274 0 0 7.412.103 11.745.246l.555-.605Z" fill="#f2c77c" fill-rule="evenodd" data-name="Trazado 27"/><path d="M810.169 80.827c-1.252-.182-4.394-.739-4.394-.739-35.71.664-71.541.137-111.996 2.654 19.815.737 34.58.345 49.96-.054 15.381-.4 30.761-.799 46.264-.006 4.969.333 11.068-.343 18.42-.837 0 0 .555-.604 1.746-1.018" fill="#f2c77c" fill-rule="evenodd" data-name="Trazado 28"/><path d="m799.855 88.524.555-.605-1.869-.174-1.17.612a18.176 18.176 0 0 1 2.484.167" fill="#f2c77c" fill-rule="evenodd" data-name="Trazado 29"/><path d="m869.666 95.574-2.586-1.16c-1.192.413-2.322 1.423-2.322 1.423s1.273.381 3.121.357c0 0 1.212-.214 1.787-.62" fill="#f2c77c" fill-rule="evenodd" data-name="Trazado 30"/><path d="M832.999 86.897c-2.566-.96-9.918-.467-9.918-.467-.595.207-1.746 1.019-1.746 1.019 2.485.166 6.878.904 6.878.904 1.233-.016 4.868-.66 4.868-.66l-.082-.796Z" fill="#f2c77c" fill-rule="evenodd" data-name="Trazado 31"/><path d="m718.147 91.777 4.23-.851-1.888-.373-3.615.843 1.273.381Z" fill="#f2c77c" fill-rule="evenodd" data-name="Trazado 32"/><path d="M946.186 83.83s-.697-.786-1.314-.778c-19.178-.547-38.871-.09-59.735.977 0 0-1.13 1.01-2.321 1.423 1.273.382 4.394.74 4.394.74 9.24-.122 17.865-.233 26.469-.544l-.02-.2c10.452-.335 20.924-.472 31.397-.607.616-.008 1.13-1.01 1.13-1.01" fill="#f2c77c" fill-rule="evenodd" data-name="Trazado 33"/><path d="M871.489 101.322s.677.588 1.334.977c3.594-1.04-1.971-1.167-1.971-1.167l.637.19Z" fill="#f2c77c" fill-rule="evenodd" data-name="Trazado 34"/><path d="M871.793 80.223s-.555.604-1.13 1.01l4.332.143 5.545-.073.616-.008 4.21-1.05-6.838-.508s-2.443.23-6.735.486" fill="#f2c77c" fill-rule="evenodd" data-name="Trazado 35"/><path d="M953.116 97.273c6.817.31 11.027-.74 13.965-2.172.555-.604-1.436-1.971-1.436-1.971-4.373-.54-9.261-.079-12.855.963l-3.513 1.837c1.909.572 2.586 1.16 3.839 1.343" fill="#f2c77c" fill-rule="evenodd" data-name="Trazado 36"/><path d="M933.199 95.542s1.191-.414 2.999-.835l-1.889-.374c-1.848.024-3.656.446-6.715.686 1.909.57 5.605.523 5.605.523" fill="#f2c77c" fill-rule="evenodd" data-name="Trazado 37"/></g><defs><clipPath id="a"><path d="M0 0h1920v120H0V0z" data-name="Rectángulo 7"/></clipPath></defs></svg>