<svg xmlns="http://www.w3.org/2000/svg" width="110.345" height="88.89" viewBox="905 194 110.345 88.89"><path d="M948.609 200.827c4.736 4.554 7.105 10.266 7.105 17.137 0 3.901-.697 8.037-2.09 12.4-1.393 4.366-3.761 9.987-7.105 16.859l-17.277 35.667H905l11.425-44.306c-7.433-5.198-11.147-12.165-11.147-20.899 0-6.688 2.46-12.304 7.384-16.858 4.92-4.551 10.911-6.827 17.974-6.827 7.245 0 13.235 2.276 17.973 6.827m59.631 0c4.737 4.554 7.105 10.266 7.105 17.137 0 3.901-.696 8.037-2.089 12.4-1.393 4.366-3.762 9.987-7.106 16.859l-17.276 35.667h-24.243l11.425-44.306c-7.432-5.198-11.146-12.165-11.146-20.899 0-6.688 2.46-12.304 7.384-16.858 4.92-4.551 10.911-6.827 17.973-6.827 7.245 0 13.236 2.276 17.973 6.827" fill="#756955" fill-rule="evenodd" data-name="Icon"/></svg>