<svg xmlns="http://www.w3.org/2000/svg" width="90.136" height="70" viewBox="638 623 90.136 70"><g data-name="Grupo 80"><g data-name="Persons"><path d="M724.702 647.815h-36.197c-1.851 0-3.437 1.568-3.437 3.395v15.019a3.394 3.394 0 0 0 3.437 3.395h6.87c.396 0 .792.392.792.784v19.722c0 1.565 1.323 2.87 3.038 2.87h14.798c1.585 0 3.038-1.305 3.038-2.87v-19.593c0-.388.262-.78.79-.78h6.871c1.848 0 3.434-1.439 3.434-3.399V651.34c0-1.957-1.586-3.525-3.434-3.525" fill="#f2c77c" fill-rule="evenodd" data-name="Trazado 97"/><path d="M706.604 640.763c4.96 0 8.98-3.976 8.98-8.88 0-4.907-4.02-8.883-8.98-8.883-4.96 0-8.985 3.976-8.985 8.883 0 4.904 4.025 8.88 8.985 8.88" fill="#f2c77c" fill-rule="evenodd" data-name="Trazado 98"/></g><g data-name="Persons"><path d="M677.634 647.815h-36.197c-1.851 0-3.437 1.568-3.437 3.395v15.019a3.394 3.394 0 0 0 3.437 3.395h6.87c.396 0 .792.392.792.784v19.722c0 1.565 1.322 2.87 3.038 2.87h14.798c1.585 0 3.037-1.305 3.037-2.87v-19.593c0-.388.263-.78.791-.78h6.871c1.848 0 3.433-1.439 3.433-3.399V651.34c0-1.957-1.585-3.525-3.433-3.525" fill="#f2c77c" fill-rule="evenodd" data-name="Trazado 97"/><path d="M659.536 640.763c4.959 0 8.98-3.976 8.98-8.88 0-4.907-4.021-8.883-8.98-8.883-4.96 0-8.985 3.976-8.985 8.883 0 4.904 4.025 8.88 8.985 8.88" fill="#f2c77c" fill-rule="evenodd" data-name="Trazado 98"/></g></g></svg>