<svg xmlns="http://www.w3.org/2000/svg" width="12.523" height="20" viewBox="550.858 412.001 12.523 20"><path d="M561.567 413.821a6.232 6.232 0 0 0-4.406-1.82c-1.74 0-3.315.716-4.42 1.82-1.174 1.093-1.883 2.675-1.883 4.407 0 1.093.546 2.75 1.256 4.482 1.022 2.436 2.6 5.11 3.628 6.92.157.325.39.638.552.952l.867 1.42.784-1.42c.232-.314.395-.627.553-.953a74.066 74.066 0 0 0 3.151-5.814c.942-2.046 1.732-4.18 1.732-5.587 0-1.732-.708-3.314-1.814-4.407m-2.36 6.215a3.116 3.116 0 0 1-2.046.778c-.79 0-1.582-.3-2.047-.778-.559-.552-.872-1.255-.872-2.122 0-.715.313-1.507.872-1.97.465-.552 1.256-.867 2.047-.867.784 0 1.494.315 2.046.867.477.463.785 1.255.785 1.97 0 .867-.308 1.57-.785 2.122" fill="#f2c77c" fill-rule="evenodd" data-name="Locator"/></svg>