<svg xmlns="http://www.w3.org/2000/svg" width="230" height="46.264" viewBox="1003 315.736 230 46.264"><g data-name="Logo PRTR"><path d="M1012.464 315.736v9.122h8.371v36.692h9.866v-36.692h8.33v-9.122h-26.567Z" fill="#212832" fill-rule="evenodd" data-name="Trazado 222"/><g data-name="Grupo 60" clip-path="url(&quot;#a&quot;)" transform="translate(1003 315.736)"><path d="M44.408 31.65a29.93 29.93 0 0 1-6.883 1.336l-2.505.064 9.068 12.728h12.176L45.787 31.21l-1.379.44Z" fill="#212832" fill-rule="evenodd" data-name="Trazado 223"/><path d="m13.005 39.472-.467-2.64-1.465 2.528-3.092-.179 2.142 1.836-1.47 2.62 2.8-1.46 2.766 1.782-.854-2.664 2.577-1.653-2.937-.17Z" fill="#212832" fill-rule="evenodd" data-name="Trazado 224"/><path d="m4.89 30.405-.44-2.38-1.362 2.276-2.882-.167 2 1.658L.44 34.125l3.007-1.287 2.172 1.587-.39-2.377 2.398-1.484-2.738-.159Z" fill="#212832" fill-rule="evenodd" data-name="Trazado 225"/><path d="m.222 23.714 2.705-1.09 1.962 1.36-.36-2.027 2.157-1.26-2.467-.142-.403-2.03-1.219 1.936L0 20.31l1.807 1.419-1.585 1.984Z" fill="#212832" fill-rule="evenodd" data-name="Trazado 226"/><path d="m5.69 15.406 2.347-.845 1.713 1.08-.323-1.6 1.87-.982-2.145-.124-.36-1.602-1.052 1.52-2.259-.13L7.06 13.85 5.69 15.406Z" fill="#212832" fill-rule="evenodd" data-name="Trazado 227"/><path d="M35.412 32.172c2.703 0 5.234-.338 7.595-1.016 2.36-.676 4.422-1.692 6.186-3.047a14.43 14.43 0 0 0 4.159-5.045c1.007-2.009 1.512-4.346 1.512-7.012v-.131c0-2.359-.424-4.51-1.271-6.454a14.21 14.21 0 0 0-3.643-5.013c-1.582-1.398-3.501-2.494-5.774-3.243C40.498-.002 36.989.063 36.989.063c0 3.044.016 6.044 0 9.109 1.601.159 3.313.59 4.85 1.769 1.534 1.18 2.302 2.906 2.302 5.177v.131c0 1.965-.733 3.615-2.2 4.947-1.467 1.333-3.528 1.999-6.185 1.999l-7.145.012c.015 3.01 0 5.961 0 8.965h6.801Z" fill="#212832" fill-rule="evenodd" data-name="Trazado 228"/><path d="M66.167 10.124h1.735c.584 0 1.13-.076 1.639-.23a3.9 3.9 0 0 0 1.335-.689c.381-.307.68-.687.898-1.142.217-.455.326-.984.326-1.588v-.029c0-.534-.092-1.021-.274-1.461a3.218 3.218 0 0 0-.787-1.135 3.545 3.545 0 0 0-1.245-.734c-.49-.173-1.046-.26-1.669-.26h-4.242v10.383h2.284v-3.115Zm0-5.206h1.765c.573 0 1.026.134 1.357.401.331.267.497.657.497 1.171v.03c0 .445-.158.818-.475 1.12-.316.301-.761.452-1.334.452h-1.81V4.918Z" fill="#212832" fill-rule="evenodd" data-name="Trazado 229"/><path d="M73.656 2.411h2.255v10.827h-2.255V2.411z" fill="#212832" fill-rule="evenodd" data-name="Rectángulo 99"/><path d="M80.287 13.387c.553 0 1.023-.092 1.409-.274.385-.183.717-.428.993-.734v.86h2.181V8.626c0-.534-.069-1.016-.208-1.446a2.66 2.66 0 0 0-.653-1.09 2.82 2.82 0 0 0-1.089-.66c-.441-.154-.972-.23-1.595-.23-.672 0-1.246.059-1.721.178a8.884 8.884 0 0 0-1.364.459l.564 1.721a7.76 7.76 0 0 1 1.045-.319 5.308 5.308 0 0 1 1.15-.111c.563 0 .988.124 1.275.371.287.247.43.608.43 1.082v.134a6.587 6.587 0 0 0-.882-.237 5.504 5.504 0 0 0-1.061-.089c-.474 0-.907.052-1.298.155-.39.104-.726.26-1.008.467-.282.208-.502.47-.66.787-.158.316-.237.692-.237 1.127v.03c0 .395.071.744.215 1.045.143.302.338.556.585.764.247.208.537.363.868.467.331.104.685.156 1.061.156m-.549-2.551c0-.356.138-.628.415-.816.277-.188.658-.282 1.142-.282a3.573 3.573 0 0 1 1.439.297v.4c0 .416-.161.752-.482 1.009-.322.257-.749.386-1.283.386-.366 0-.662-.084-.89-.253-.228-.168-.341-.405-.341-.711v-.03Z" fill="#212832" fill-rule="evenodd" data-name="Trazado 230"/><path d="M89.067 8.815c0-.532.126-.934.378-1.206.252-.271.596-.407 1.031-.407.435 0 .771.136 1.009.407.237.272.356.674.356 1.206v4.424h2.254V8.092c0-.919-.235-1.641-.704-2.165-.47-.524-1.135-.786-1.995-.786a2.66 2.66 0 0 0-.772.104c-.227.07-.435.165-.623.284-.188.12-.358.257-.511.411a4.692 4.692 0 0 0-.423.485V5.289h-2.255v7.95h2.255V8.815Z" fill="#212832" fill-rule="evenodd" data-name="Trazado 231"/><path d="M101.259 12.327c.336.351.722.615 1.157.793.435.178.885.267 1.35.267.593 0 1.085-.121 1.475-.363a3.566 3.566 0 0 0 1.002-.927v1.142h2.254V2.412h-2.254v3.915a3.976 3.976 0 0 0-.987-.83c-.39-.238-.887-.356-1.49-.356-.475 0-.93.089-1.365.266a3.278 3.278 0 0 0-1.149.794 3.998 3.998 0 0 0-.801 1.29c-.203.51-.304 1.096-.304 1.758v.03c0 .662.101 1.248.304 1.757.202.51.472.94.808 1.291m1.142-3.078c0-.336.052-.638.156-.905.104-.267.245-.497.423-.689a1.811 1.811 0 0 1 1.364-.601 1.78 1.78 0 0 1 1.357.601c.173.192.312.425.415.697.104.272.156.571.156.897v.03c0 .326-.052.625-.156.897a2.198 2.198 0 0 1-.415.697 1.794 1.794 0 0 1-1.357.601 1.811 1.811 0 0 1-1.364-.601 2.144 2.144 0 0 1-.423-.697 2.492 2.492 0 0 1-.156-.897v-.03Z" fill="#212832" fill-rule="evenodd" data-name="Trazado 232"/><path d="M111.307 12.275c.371.366.811.648 1.32.845a4.526 4.526 0 0 0 1.654.297c.722 0 1.35-.131 1.884-.393a3.999 3.999 0 0 0 1.364-1.09l-1.29-1.142a3.446 3.446 0 0 1-.92.623 2.52 2.52 0 0 1-1.008.192c-.505 0-.927-.131-1.269-.393-.341-.262-.566-.65-.674-1.164h5.532a7.554 7.554 0 0 0 .03-.593c0-.564-.077-1.105-.23-1.624a4.006 4.006 0 0 0-.712-1.38 3.51 3.51 0 0 0-1.209-.956c-.485-.238-1.058-.356-1.72-.356-.584 0-1.115.109-1.595.326-.48.218-.892.514-1.238.89a4.068 4.068 0 0 0-.809 1.32 4.44 4.44 0 0 0-.289 1.602v.03c0 .613.104 1.169.311 1.668.208.499.497.932.868 1.298m1.603-4.865c.29-.306.674-.46 1.149-.46.474 0 .855.156 1.141.468.287.311.465.719.534 1.223h-3.396c.089-.514.279-.924.572-1.231" fill="#212832" fill-rule="evenodd" data-name="Trazado 233"/><path d="M126.577 9.917h1.795l2.225 3.322h2.669l-2.536-3.708a3.559 3.559 0 0 0 1.609-1.165c.411-.528.616-1.213.616-2.054v-.029c0-.989-.297-1.78-.89-2.374-.702-.701-1.711-1.053-3.026-1.053h-4.746v10.383h2.284V9.917Zm0-4.999h2.269c.564 0 1.004.124 1.32.371.317.247.475.618.475 1.112v.03c0 .445-.151.801-.452 1.068-.302.267-.735.4-1.298.4h-2.314V4.918Z" fill="#212832" fill-rule="evenodd" data-name="Trazado 234"/><path d="M135.573 12.275c.371.366.811.648 1.32.845a4.525 4.525 0 0 0 1.654.297c.722 0 1.35-.131 1.884-.393a3.999 3.999 0 0 0 1.364-1.09l-1.29-1.142a3.446 3.446 0 0 1-.92.623 2.52 2.52 0 0 1-1.008.192c-.505 0-.927-.131-1.269-.393-.341-.262-.566-.65-.674-1.164h5.532a7.582 7.582 0 0 0 .03-.593c0-.564-.077-1.105-.23-1.624a4.006 4.006 0 0 0-.712-1.38 3.51 3.51 0 0 0-1.209-.956c-.485-.238-1.058-.356-1.721-.356-.583 0-1.114.109-1.594.326a3.79 3.79 0 0 0-1.238.89 4.068 4.068 0 0 0-.809 1.32 4.44 4.44 0 0 0-.289 1.602v.03c0 .613.104 1.169.311 1.668.208.499.497.932.868 1.298m1.602-4.865c.291-.306.675-.46 1.149-.46.475 0 .856.156 1.142.468.287.311.465.719.534 1.223h-3.396c.089-.514.279-.924.571-1.231" fill="#212832" fill-rule="evenodd" data-name="Trazado 235"/><path d="M144.657 12.208c.366.371.803.665 1.313.883.509.217 1.06.326 1.654.326.79 0 1.433-.136 1.927-.408.495-.272.935-.62 1.32-1.045l-1.32-1.335a4.103 4.103 0 0 1-.838.615c-.281.153-.61.23-.986.23a1.916 1.916 0 0 1-1.468-.638 2.036 2.036 0 0 1-.408-.697 2.569 2.569 0 0 1-.141-.86v-.03c0-.296.047-.576.141-.838a2.11 2.11 0 0 1 .401-.689c.172-.198.375-.354.607-.468a1.76 1.76 0 0 1 .779-.17c.406 0 .744.079 1.016.237.272.158.537.371.794.638l1.379-1.483a4.185 4.185 0 0 0-1.305-.979c-.495-.238-1.118-.356-1.869-.356-.613 0-1.174.109-1.683.326a4.003 4.003 0 0 0-2.173 2.21 4.158 4.158 0 0 0-.312 1.602v.03c0 .563.104 1.095.312 1.594.207.5.494.934.86 1.305" fill="#212832" fill-rule="evenodd" data-name="Trazado 236"/><path d="M159.563 13.238V5.289h-2.254v4.424c0 .532-.127.934-.379 1.205s-.596.408-1.03.408c-.436 0-.772-.137-1.009-.408-.237-.271-.356-.673-.356-1.205V5.289h-2.254v5.147c0 .918.234 1.64.704 2.166.47.523 1.135.786 1.995.786.287 0 .544-.036.771-.105.228-.07.435-.165.623-.284.188-.12.359-.257.512-.411.153-.154.294-.317.423-.486v1.136h2.254Z" fill="#212832" fill-rule="evenodd" data-name="Trazado 237"/><path d="M163.835 12.2c.267.317.595.594.986.831.39.237.887.356 1.491.356.474 0 .929-.089 1.364-.267a3.275 3.275 0 0 0 1.15-.793c.33-.351.598-.781.8-1.291.203-.509.304-1.095.304-1.757v-.03c0-.662-.101-1.248-.304-1.758a3.945 3.945 0 0 0-.808-1.29 3.36 3.36 0 0 0-1.156-.794 3.558 3.558 0 0 0-1.35-.266c-.594 0-1.086.121-1.476.363a3.55 3.55 0 0 0-1.001.927V5.289h-2.255v10.323h2.255V12.2Zm-.03-2.951c0-.326.052-.625.156-.897.103-.272.242-.505.415-.697a1.78 1.78 0 0 1 1.357-.601c.267 0 .517.052.749.156.232.103.437.252.616.445.178.192.319.425.423.697.104.272.155.571.155.897v.03c0 .336-.051.638-.155.905a2.159 2.159 0 0 1-.423.689 1.885 1.885 0 0 1-.616.445 1.81 1.81 0 0 1-.749.156 1.794 1.794 0 0 1-1.357-.601 2.198 2.198 0 0 1-.415-.697 2.492 2.492 0 0 1-.156-.897v-.03Z" fill="#212832" fill-rule="evenodd" data-name="Trazado 238"/><path d="M173.705 13.12a4.53 4.53 0 0 0 1.654.297c.722 0 1.35-.131 1.884-.393a3.999 3.999 0 0 0 1.364-1.09l-1.29-1.142a3.446 3.446 0 0 1-.92.623 2.517 2.517 0 0 1-1.008.192c-.505 0-.927-.131-1.268-.393-.341-.262-.567-.65-.675-1.164h5.532a7.555 7.555 0 0 0 .03-.593c0-.564-.077-1.105-.23-1.624a4.006 4.006 0 0 0-.712-1.38 3.5 3.5 0 0 0-1.209-.956c-.484-.238-1.058-.356-1.72-.356-.584 0-1.115.109-1.595.326a3.801 3.801 0 0 0-1.238.89 4.048 4.048 0 0 0-.808 1.32 4.441 4.441 0 0 0-.29 1.602v.03c0 .613.104 1.169.311 1.668a3.818 3.818 0 0 0 2.188 2.143m.282-5.71c.292-.306.675-.46 1.15-.46.474 0 .855.156 1.142.468.287.311.464.719.534 1.223h-3.397c.089-.514.279-.924.571-1.231" fill="#212832" fill-rule="evenodd" data-name="Trazado 239"/><path d="M182.938 6.89V5.289h-2.254v7.95h2.254v-2.937c0-.959.215-1.666.645-2.121.431-.454 1.021-.682 1.773-.682h.119V5.14c-.673-.029-1.207.12-1.602.446-.396.326-.707.761-.935 1.304" fill="#212832" fill-rule="evenodd" data-name="Trazado 240"/><path d="M192.861 6.089a2.837 2.837 0 0 0-1.09-.66c-.44-.153-.971-.23-1.594-.23-.673 0-1.246.06-1.721.178a8.887 8.887 0 0 0-1.364.46l.563 1.721a7.629 7.629 0 0 1 1.046-.319 5.303 5.303 0 0 1 1.15-.112c.563 0 .988.124 1.275.371.287.248.43.608.43 1.083v.133a6.9 6.9 0 0 0-.882-.237 5.585 5.585 0 0 0-1.061-.089c-.475 0-.907.052-1.298.156-.391.104-.726.26-1.008.467-.282.208-.502.47-.66.786-.159.317-.238.693-.238 1.128v.029c0 .396.072.744.216 1.046.143.302.338.556.586.763.247.208.536.364.867.468a3.52 3.52 0 0 0 1.06.156c.554 0 1.024-.092 1.41-.275.385-.183.716-.428.993-.734v.86h2.181V8.626c0-.534-.069-1.017-.208-1.447a2.666 2.666 0 0 0-.653-1.09m-1.275 4.346c0 .415-.161.752-.482 1.008-.322.258-.749.386-1.283.386-.366 0-.663-.084-.89-.252-.228-.168-.341-.406-.341-.712v-.029c0-.357.138-.628.415-.816.277-.188.657-.282 1.142-.282.277 0 .536.027.779.081.242.055.462.127.66.215v.401Z" fill="#212832" fill-rule="evenodd" data-name="Trazado 241"/><path d="M200.507 11.244c-.282.153-.611.23-.986.23a1.926 1.926 0 0 1-1.469-.638 2.036 2.036 0 0 1-.408-.697 2.573 2.573 0 0 1-.14-.86v-.03c0-.296.046-.576.14-.838.094-.262.228-.492.401-.69.172-.197.375-.353.608-.467.232-.113.491-.17.778-.17.406 0 .744.079 1.017.237.271.158.536.371.793.638l1.379-1.484a4.186 4.186 0 0 0-1.305-.978c-.494-.238-1.117-.356-1.869-.356-.613 0-1.174.109-1.683.326a4.013 4.013 0 0 0-1.313.89 4.128 4.128 0 0 0-.86 1.32 4.158 4.158 0 0 0-.312 1.602v.03c0 .563.104 1.095.312 1.594.208.499.494.934.86 1.305.366.371.804.665 1.313.883a4.176 4.176 0 0 0 1.654.326c.791 0 1.433-.136 1.928-.408a5.07 5.07 0 0 0 1.32-1.046l-1.32-1.334a4.159 4.159 0 0 1-.838.615" fill="#212832" fill-rule="evenodd" data-name="Trazado 242"/><path d="M204.178 2.411h2.373v2.002h-2.373V2.411z" fill="#212832" fill-rule="evenodd" data-name="Rectángulo 100"/><path d="M204.237 5.288h2.254v7.95h-2.254v-7.95z" fill="#212832" fill-rule="evenodd" data-name="Rectángulo 101"/><path d="m215.287 2.634-1.943-.845-1.676 2.625h1.72l1.899-1.78Z" fill="#212832" fill-rule="evenodd" data-name="Trazado 243"/><path d="M215.606 6.334a4.171 4.171 0 0 0-1.357-.875 4.508 4.508 0 0 0-1.706-.319c-.623 0-1.196.109-1.72.326a4.305 4.305 0 0 0-1.365.89 4.112 4.112 0 0 0-.905 1.313 3.993 3.993 0 0 0-.326 1.609v.03c0 .573.109 1.11.326 1.609a4.072 4.072 0 0 0 2.255 2.18c.524.213 1.093.32 1.705.32.623 0 1.197-.11 1.721-.327a4.282 4.282 0 0 0 1.365-.89c.385-.375.687-.813.904-1.313a3.974 3.974 0 0 0 .327-1.609v-.03a3.98 3.98 0 0 0-.327-1.609 4.08 4.08 0 0 0-.897-1.305m-1.001 2.974c0 .297-.047.576-.141.838-.094.262-.23.492-.408.69a1.931 1.931 0 0 1-.645.467 2.1 2.1 0 0 1-.868.17c-.316 0-.6-.059-.853-.178a2.113 2.113 0 0 1-1.09-1.179 2.35 2.35 0 0 1-.148-.838v-.03c0-.296.047-.575.141-.837.094-.262.23-.492.408-.69.178-.198.393-.354.645-.467.252-.114.541-.171.867-.171.307 0 .589.059.846.178a2.105 2.105 0 0 1 1.097 1.179c.099.262.149.542.149.838v.03Z" fill="#212832" fill-rule="evenodd" data-name="Trazado 244"/><path d="M223.044 5.14c-.287 0-.544.035-.771.105-.228.07-.435.164-.623.284a2.925 2.925 0 0 0-.512.41 5.074 5.074 0 0 0-.423.486V5.288h-2.254v7.95h2.254V8.814c0-.532.127-.934.379-1.205s.595-.407 1.031-.407c.434 0 .771.136 1.008.407.237.271.356.673.356 1.205v4.424h2.255V8.092c0-.92-.235-1.642-.705-2.166s-1.135-.786-1.995-.786" fill="#212832" fill-rule="evenodd" data-name="Trazado 245"/><path d="M227.612 10.866v2.373h.914c.078.87-.404 1.359-1.448 1.469l.193.934c.876-.01 1.549-.23 2.021-.66.472-.43.708-1.135.708-2.114v-2.002h-2.388Z" fill="#212832" fill-rule="evenodd" data-name="Trazado 246"/><path d="M66.164 28.82h2.284v-8.275h3.16v-2.107h-8.603v2.107h3.159v8.276Z" fill="#212832" fill-rule="evenodd" data-name="Trazado 247"/><path d="M75.374 22.473v-1.602h-2.255v7.95h2.255v-2.937c0-.959.215-1.666.645-2.121.43-.455 1.021-.682 1.773-.682h.118v-2.358c-.672-.03-1.206.118-1.602.445-.395.326-.707.761-.934 1.305" fill="#212832" fill-rule="evenodd" data-name="Trazado 248"/><path d="M82.612 20.781c-.672 0-1.246.059-1.721.178a8.887 8.887 0 0 0-1.364.46l.564 1.72a7.748 7.748 0 0 1 1.045-.318 5.241 5.241 0 0 1 1.15-.112c.563 0 .988.124 1.275.371.287.248.43.608.43 1.083v.134a6.59 6.59 0 0 0-.882-.238 5.585 5.585 0 0 0-1.061-.089c-.474 0-.907.052-1.297.156-.391.104-.727.26-1.009.467-.282.208-.502.47-.66.786-.158.317-.237.693-.237 1.127v.03c0 .396.071.744.215 1.046.143.301.338.556.586.764a2.5 2.5 0 0 0 .867.467c.331.104.685.155 1.061.155.553 0 1.023-.091 1.409-.274.386-.183.717-.427.994-.734v.86h2.18v-4.613c0-.534-.069-1.016-.208-1.446a2.675 2.675 0 0 0-.652-1.09 2.832 2.832 0 0 0-1.09-.66c-.441-.153-.972-.23-1.595-.23m1.409 5.236c0 .415-.161.752-.482 1.009-.322.257-.749.385-1.283.385-.366 0-.662-.084-.89-.252-.228-.168-.341-.405-.341-.712v-.03c0-.355.138-.627.415-.815.277-.188.658-.282 1.142-.282a3.5 3.5 0 0 1 1.439.297v.4Z" fill="#212832" fill-rule="evenodd" data-name="Trazado 249"/><path d="M90.355 24.397c0-.533.126-.935.378-1.206.252-.271.596-.407 1.031-.407.435 0 .771.136 1.009.407.237.271.356.673.356 1.206v4.424h2.254v-5.147c0-.919-.235-1.641-.705-2.165-.469-.524-1.134-.786-1.994-.786-.287 0-.544.034-.772.104-.227.07-.435.164-.623.284-.188.12-.358.256-.511.411a4.692 4.692 0 0 0-.423.485v-1.136H88.1v7.95h2.255v-4.424Z" fill="#212832" fill-rule="evenodd" data-name="Trazado 250"/><path d="M100.908 27.071c-.153.109-.393.163-.719.163-.376 0-.779-.079-1.209-.237a5.35 5.35 0 0 1-1.298-.712l-.964 1.483a5.568 5.568 0 0 0 3.411 1.201c.425 0 .824-.052 1.194-.155.371-.104.695-.26.972-.468.277-.207.492-.472.645-.793.153-.321.23-.705.23-1.15v-.029c0-.366-.074-.678-.222-.935a2.246 2.246 0 0 0-.564-.652 3.523 3.523 0 0 0-.771-.453 9.314 9.314 0 0 0-.846-.318c-.217-.07-.423-.139-.615-.208a4.86 4.86 0 0 1-.512-.215 1.457 1.457 0 0 1-.356-.238.386.386 0 0 1-.134-.289v-.029c0-.158.07-.29.208-.393.138-.104.346-.156.623-.156.287 0 .618.066.994.2.375.133.761.314 1.157.541l.86-1.557a5.666 5.666 0 0 0-1.431-.675 5.108 5.108 0 0 0-1.536-.245c-.405 0-.783.055-1.134.163a2.648 2.648 0 0 0-.92.49 2.391 2.391 0 0 0-.623.794c-.153.311-.23.67-.23 1.075v.029c0 .386.072.713.215.979.144.267.329.493.557.675.227.183.482.332.764.445.281.114.561.21.838.289.217.07.425.134.623.193.197.059.373.121.526.186.153.064.274.141.363.23a.42.42 0 0 1 .134.311v.03a.505.505 0 0 1-.23.43" fill="#212832" fill-rule="evenodd" data-name="Trazado 251"/><path d="M107.634 17.889c-.801 0-1.409.207-1.824.623-.426.425-.638 1.068-.638 1.928v.504h-.935v1.854h.935v6.022h2.254v-6.022h1.795v-1.839h-1.824v-.311c0-.574.272-.86.815-.86.198 0 .376.017.534.051.158.035.322.082.49.141v-1.869a4.371 4.371 0 0 0-.69-.163 6.068 6.068 0 0 0-.912-.059" fill="#212832" fill-rule="evenodd" data-name="Trazado 252"/><path d="M118.669 24.831c0-.574-.109-1.11-.326-1.61a4.083 4.083 0 0 0-.898-1.305 4.171 4.171 0 0 0-1.357-.875 4.508 4.508 0 0 0-1.706-.319 4.45 4.45 0 0 0-1.72.326 4.316 4.316 0 0 0-1.365.89 4.11 4.11 0 0 0-.904 1.313 3.977 3.977 0 0 0-.327 1.609v.03a4.057 4.057 0 0 0 2.581 3.79 4.507 4.507 0 0 0 1.706.318c.623 0 1.196-.108 1.72-.326a4.282 4.282 0 0 0 1.365-.89 4.1 4.1 0 0 0 .905-1.313 3.99 3.99 0 0 0 .326-1.609v-.029Zm-2.225.059c0 .296-.047.576-.141.838-.094.262-.23.492-.408.689a1.907 1.907 0 0 1-.645.468c-.252.114-.541.17-.868.17a1.985 1.985 0 0 1-1.513-.66 2.121 2.121 0 0 1-.43-.697 2.35 2.35 0 0 1-.148-.838v-.029c0-.297.047-.576.141-.838.094-.262.23-.492.408-.69.178-.198.393-.354.645-.467.252-.114.541-.171.868-.171.306 0 .588.06.845.178a2.105 2.105 0 0 1 1.098 1.179c.099.262.148.542.148.838v.03Z" fill="#212832" fill-rule="evenodd" data-name="Trazado 253"/><path d="M122.555 25.884c0-.959.215-1.666.645-2.121.43-.455 1.021-.682 1.773-.682h.118v-2.359c-.672-.029-1.206.119-1.602.445-.395.326-.707.762-.934 1.306v-1.602H120.3v7.95h2.255v-2.937Z" fill="#212832" fill-rule="evenodd" data-name="Trazado 254"/><path d="M138.633 28.821v-5.177c0-.958-.237-1.685-.712-2.18-.475-.494-1.132-.741-1.973-.741-.544 0-1.028.106-1.453.321-.426.214-.811.53-1.157.948a2.22 2.22 0 0 0-.883-.941c-.38-.219-.833-.328-1.357-.328a2.7 2.7 0 0 0-.779.104c-.232.07-.442.164-.63.284a2.93 2.93 0 0 0-.512.411 4.803 4.803 0 0 0-.422.485v-1.136H126.5v7.95h2.255v-4.424c0-.533.121-.935.363-1.206.242-.271.576-.407 1.001-.407.425 0 .751.136.979.407.228.271.341.673.341 1.206v4.424h2.255v-4.424c0-.533.121-.935.363-1.206.242-.271.576-.407 1.001-.407.425 0 .752.136.979.407.228.271.341.673.341 1.206v4.424h2.255Z" fill="#212832" fill-rule="evenodd" data-name="Trazado 255"/><path d="M147.428 28.821v-4.613c0-.534-.069-1.016-.208-1.446a2.668 2.668 0 0 0-.652-1.09 2.85 2.85 0 0 0-1.089-.661c-.442-.153-.972-.229-1.596-.229-.672 0-1.246.059-1.721.177a8.996 8.996 0 0 0-1.364.46l.564 1.721a7.618 7.618 0 0 1 1.045-.319 5.308 5.308 0 0 1 1.15-.111c.563 0 .988.123 1.275.371.287.247.43.608.43 1.082v.134a6.743 6.743 0 0 0-.882-.238 5.592 5.592 0 0 0-1.061-.088 5.08 5.08 0 0 0-1.297.155 2.99 2.99 0 0 0-1.009.467 2.15 2.15 0 0 0-.659.787c-.159.316-.237.692-.237 1.127v.03c0 .395.071.744.214 1.045.143.302.338.557.585.764.248.208.537.363.869.467.33.104.684.156 1.06.156.553 0 1.023-.092 1.409-.274.385-.183.717-.428.993-.735v.861h2.181Zm-2.617-1.795c-.323.257-.75.386-1.284.386-.366 0-.662-.084-.89-.252-.227-.168-.341-.406-.341-.713v-.029c0-.356.138-.628.415-.816.277-.188.658-.282 1.143-.282a3.57 3.57 0 0 1 1.438.297v.4c0 .416-.16.752-.481 1.009" fill="#212832" fill-rule="evenodd" data-name="Trazado 256"/><path d="M151.47 28.672c.509.217 1.06.326 1.654.326.791 0 1.433-.136 1.928-.408.494-.272.934-.62 1.32-1.045l-1.32-1.335a4.159 4.159 0 0 1-.838.615c-.282.154-.611.23-.986.23-.307 0-.584-.057-.831-.17a1.943 1.943 0 0 1-.638-.468 2.036 2.036 0 0 1-.408-.697 2.569 2.569 0 0 1-.141-.86v-.03c0-.296.047-.576.141-.838.094-.262.228-.491.401-.689.173-.198.375-.354.608-.467.232-.114.492-.171.779-.171.405 0 .743.079 1.016.237.271.158.536.371.793.638l1.379-1.484a4.175 4.175 0 0 0-1.305-.978c-.494-.238-1.117-.356-1.869-.356a4.23 4.23 0 0 0-1.683.326 4.013 4.013 0 0 0-1.313.89 4.128 4.128 0 0 0-.86 1.32 4.165 4.165 0 0 0-.312 1.602v.03c0 .563.104 1.095.312 1.594.208.499.494.935.86 1.305.366.371.804.666 1.313.883" fill="#212832" fill-rule="evenodd" data-name="Trazado 257"/><path d="M157.944 20.871h2.255v7.95h-2.255v-7.95z" fill="#212832" fill-rule="evenodd" data-name="Rectángulo 102"/><path d="M157.885 17.993h2.373v2.002h-2.373v-2.002z" fill="#212832" fill-rule="evenodd" data-name="Rectángulo 103"/><path d="M165.375 19.995h1.721l1.898-1.78-1.943-.845-1.676 2.625Z" fill="#212832" fill-rule="evenodd" data-name="Trazado 258"/><path d="M169.313 21.916a4.16 4.16 0 0 0-1.357-.875 4.508 4.508 0 0 0-1.706-.319c-.623 0-1.196.109-1.72.326a4.316 4.316 0 0 0-1.365.89 4.109 4.109 0 0 0-.904 1.313 3.977 3.977 0 0 0-.327 1.609v.03a4.057 4.057 0 0 0 2.581 3.79 4.507 4.507 0 0 0 1.706.318c.623 0 1.196-.108 1.72-.326a4.282 4.282 0 0 0 1.365-.89c.386-.376.687-.813.904-1.313a3.974 3.974 0 0 0 .327-1.609v-.029c0-.574-.109-1.11-.327-1.61a4.064 4.064 0 0 0-.897-1.305m-1.001 2.974c0 .296-.047.576-.141.838-.094.262-.23.492-.408.689a1.907 1.907 0 0 1-.645.468c-.252.114-.541.17-.868.17a1.986 1.986 0 0 1-1.513-.66 2.121 2.121 0 0 1-.43-.697 2.349 2.349 0 0 1-.148-.838v-.029c0-.297.047-.576.141-.838.094-.262.23-.492.408-.69.178-.198.393-.354.645-.467.252-.114.541-.171.868-.171.306 0 .588.06.845.178a2.105 2.105 0 0 1 1.098 1.179c.099.262.148.542.148.838v.03Z" fill="#212832" fill-rule="evenodd" data-name="Trazado 259"/><path d="M176.751 20.722c-.287 0-.544.035-.771.105a2.476 2.476 0 0 0-.623.284 2.925 2.925 0 0 0-.512.41 5.074 5.074 0 0 0-.423.486V20.87h-2.254v7.95h2.254v-4.424c0-.532.127-.934.379-1.205s.595-.407 1.03-.407c.435 0 .772.136 1.009.407.237.271.356.673.356 1.205v4.424h2.254v-5.147c0-.919-.235-1.641-.704-2.165-.47-.524-1.135-.786-1.995-.786" fill="#212832" fill-rule="evenodd" data-name="Trazado 260"/><path d="m68.461 41.31-1.809-5.414h-2.388l3.114 7.98c-.098.197-.205.334-.318.408-.114.074-.27.111-.468.111-.148 0-.309-.03-.482-.089a2.527 2.527 0 0 1-.482-.223l-.756 1.632a4.3 4.3 0 0 0 .905.4c.316.099.682.149 1.097.149.336 0 .633-.04.89-.119.257-.079.487-.207.69-.386.202-.178.388-.407.556-.689.168-.282.326-.626.475-1.031l3.055-8.143h-2.344l-1.735 5.414Z" fill="#212832" fill-rule="evenodd" data-name="Trazado 261"/><path d="M86.608 38.974c.41-.529.616-1.214.616-2.055v-.029c0-.989-.297-1.78-.89-2.373-.702-.702-1.711-1.054-3.026-1.054h-4.746v10.383h2.284v-3.323h1.795l2.224 3.323h2.67l-2.536-3.708a3.564 3.564 0 0 0 1.609-1.164m-1.698-1.936c0 .445-.151.801-.452 1.068-.302.267-.734.401-1.298.401h-2.314v-2.982h2.269c.564 0 1.004.124 1.32.371.316.247.475.618.475 1.112v.03Z" fill="#212832" fill-rule="evenodd" data-name="Trazado 262"/><path d="M95.522 37.061a3.49 3.49 0 0 0-1.209-.956c-.484-.238-1.058-.357-1.721-.357-.583 0-1.114.109-1.594.327a3.79 3.79 0 0 0-1.239.89 4.083 4.083 0 0 0-.808 1.32 4.462 4.462 0 0 0-.289 1.602v.03c0 .612.104 1.169.311 1.668a3.818 3.818 0 0 0 2.188 2.143 4.53 4.53 0 0 0 1.654.297c.722 0 1.35-.131 1.884-.393a3.999 3.999 0 0 0 1.364-1.09l-1.29-1.142a3.446 3.446 0 0 1-.92.623 2.52 2.52 0 0 1-1.008.193c-.505 0-.927-.132-1.269-.394-.341-.262-.566-.65-.674-1.164h5.532a7.49 7.49 0 0 0 .03-.593c0-.564-.077-1.105-.23-1.624a4.006 4.006 0 0 0-.712-1.38m-4.65 2.188c.089-.514.279-.924.571-1.231.292-.306.675-.46 1.149-.46.475 0 .856.156 1.143.467.287.312.464.72.533 1.224h-3.396Z" fill="#212832" fill-rule="evenodd" data-name="Trazado 263"/><path d="M103.183 39.812a3.488 3.488 0 0 0-.772-.452 9.328 9.328 0 0 0-.846-.319 17.452 17.452 0 0 1-.614-.208 4.677 4.677 0 0 1-.513-.215 1.506 1.506 0 0 1-.356-.237.387.387 0 0 1-.132-.289v-.03a.47.47 0 0 1 .207-.393c.139-.104.346-.156.622-.156.287 0 .618.067.994.2.376.134.762.314 1.157.542l.86-1.558a5.65 5.65 0 0 0-1.431-.675 5.103 5.103 0 0 0-1.534-.244c-.406 0-.785.054-1.136.163-.35.109-.657.272-.919.489-.263.218-.47.482-.624.794-.153.311-.23.67-.23 1.075v.03c0 .385.073.712.216.979.143.267.329.492.556.675.227.183.483.331.764.445.282.113.561.21.838.289.217.069.425.133.623.193.197.059.373.121.526.185.153.065.275.141.364.23.09.089.134.193.134.311v.03a.504.504 0 0 1-.231.43c-.153.109-.393.163-.719.163-.376 0-.779-.079-1.209-.237a5.35 5.35 0 0 1-1.298-.712l-.963 1.483a5.543 5.543 0 0 0 3.41 1.202c.427 0 .824-.052 1.194-.156.372-.104.695-.26.972-.467.277-.208.493-.472.646-.794.153-.321.229-.704.229-1.149v-.03c0-.366-.073-.677-.222-.935a2.269 2.269 0 0 0-.563-.652" fill="#212832" fill-rule="evenodd" data-name="Trazado 264"/><path d="M105.63 33.02h2.373v2.001h-2.373V33.02z" fill="#212832" fill-rule="evenodd" data-name="Rectángulo 104"/><path d="M105.689 35.896h2.254v7.95h-2.254v-7.95z" fill="#212832" fill-rule="evenodd" data-name="Rectángulo 105"/><path d="M110.168 33.02h2.254v10.826h-2.254V33.02z" fill="#212832" fill-rule="evenodd" data-name="Rectángulo 106"/><path d="M114.647 35.896h2.254v7.95h-2.254v-7.95z" fill="#212832" fill-rule="evenodd" data-name="Rectángulo 107"/><path d="M114.588 33.02h2.373v2.001h-2.373V33.02z" fill="#212832" fill-rule="evenodd" data-name="Rectángulo 108"/><path d="M125.497 37.061a3.49 3.49 0 0 0-1.209-.956c-.484-.238-1.058-.357-1.721-.357a3.81 3.81 0 0 0-1.594.327 3.79 3.79 0 0 0-1.239.89 4.083 4.083 0 0 0-.808 1.32 4.462 4.462 0 0 0-.289 1.602v.03c0 .612.104 1.169.311 1.668a3.818 3.818 0 0 0 2.188 2.143 4.53 4.53 0 0 0 1.654.297c.722 0 1.35-.131 1.884-.393a3.999 3.999 0 0 0 1.364-1.09l-1.29-1.142a3.446 3.446 0 0 1-.92.623 2.52 2.52 0 0 1-1.008.193c-.505 0-.927-.132-1.269-.394-.341-.262-.566-.65-.674-1.164h5.532a7.478 7.478 0 0 0 .03-.593c0-.564-.077-1.105-.23-1.624a4.006 4.006 0 0 0-.712-1.38m-4.65 2.188c.089-.514.279-.924.571-1.231.292-.306.675-.46 1.149-.46.475 0 .856.156 1.143.467.287.312.464.72.534 1.224h-3.397Z" fill="#212832" fill-rule="evenodd" data-name="Trazado 265"/><path d="M132.697 35.748a2.492 2.492 0 0 0-1.394.389 2.925 2.925 0 0 0-.512.41 5.074 5.074 0 0 0-.423.486v-1.137h-2.254v7.95h2.254v-4.424c0-.532.127-.934.379-1.205s.595-.407 1.031-.407c.434 0 .771.136 1.008.407.237.271.356.673.356 1.205v4.424h2.255v-5.147c0-.919-.235-1.641-.705-2.165s-1.135-.786-1.995-.786" fill="#212832" fill-rule="evenodd" data-name="Trazado 266"/><path d="M142.197 41.852c-.282.153-.611.23-.986.23a1.926 1.926 0 0 1-1.469-.638 2.045 2.045 0 0 1-.408-.697 2.573 2.573 0 0 1-.14-.86v-.03c0-.297.046-.576.14-.838.094-.262.228-.492.401-.69.172-.197.375-.353.608-.467a1.74 1.74 0 0 1 .778-.171c.406 0 .744.08 1.017.238.271.158.536.371.793.638l1.379-1.484a4.186 4.186 0 0 0-1.305-.978c-.494-.238-1.117-.357-1.869-.357-.613 0-1.174.109-1.683.327a3.998 3.998 0 0 0-2.173 2.21 4.158 4.158 0 0 0-.312 1.602v.029c0 .564.104 1.096.312 1.595.208.499.494.934.86 1.305.366.371.804.665 1.313.883a4.176 4.176 0 0 0 1.654.326c.791 0 1.433-.136 1.928-.408.494-.272.934-.62 1.32-1.045l-1.32-1.336a4.127 4.127 0 0 1-.838.616" fill="#212832" fill-rule="evenodd" data-name="Trazado 267"/><path d="M145.869 33.02h2.373v2.001h-2.373V33.02z" fill="#212832" fill-rule="evenodd" data-name="Rectángulo 109"/><path d="M145.928 35.896h2.254v7.95h-2.254v-7.95z" fill="#212832" fill-rule="evenodd" data-name="Rectángulo 110"/><path d="M156.28 36.697a2.824 2.824 0 0 0-1.09-.66c-.44-.153-.971-.23-1.594-.23-.673 0-1.246.059-1.721.178a8.887 8.887 0 0 0-1.364.46l.563 1.72a7.76 7.76 0 0 1 1.046-.318 5.241 5.241 0 0 1 1.15-.112c.563 0 .988.124 1.275.371.287.248.43.608.43 1.083v.134a6.59 6.59 0 0 0-.882-.238 5.585 5.585 0 0 0-1.061-.089c-.475 0-.907.052-1.298.156-.391.104-.726.26-1.008.467-.282.208-.502.47-.66.786-.159.317-.238.693-.238 1.127v.03c0 .396.072.744.216 1.046.143.301.338.556.586.764a2.5 2.5 0 0 0 .867.467 3.52 3.52 0 0 0 1.06.155c.554 0 1.024-.091 1.41-.274.385-.183.716-.427.993-.734v.86h2.181v-4.613c0-.534-.069-1.016-.208-1.446a2.666 2.666 0 0 0-.653-1.09m-1.275 4.346c0 .415-.161.752-.482 1.009-.322.257-.749.385-1.283.385-.366 0-.663-.084-.89-.252-.228-.168-.341-.405-.341-.712v-.03c0-.355.138-.627.415-.815.277-.188.657-.282 1.142-.282a3.5 3.5 0 0 1 1.439.297v.4Z" fill="#212832" fill-rule="evenodd" data-name="Trazado 268"/></g></g><defs><clipPath id="a"><path d="M0 0h230v46.264H0V0z" data-name="Rectángulo 111"/></clipPath></defs></svg>