<svg xmlns="http://www.w3.org/2000/svg" width="230" height="57.374" viewBox="1003 240 230 57.374"><g data-name="Logo FUENG"><path d="M1004.624 241.573h81.242v54.162h-81.242v-54.162ZM1003 297.374h84.491V240H1003v57.374Z" fill="#212832" fill-rule="evenodd" data-name="Trazado 269"/><path d="m1043.514 253.375 1.714-1.251 1.715 1.25-.653-2.022 1.742-1.251h-2.147l-.657-2.048-.657 2.05-2.145-.002 1.74 1.25-.652 2.024Z" fill="#212832" fill-rule="evenodd" data-name="Trazado 270"/><path d="m1034.643 255.758 1.714-1.251 1.714 1.25-.652-2.022 1.74-1.251h-2.146l-.657-2.05-.657 2.052-2.145-.002 1.74 1.25-.65 2.024Z" fill="#212832" fill-rule="evenodd" data-name="Trazado 271"/><path d="m1029.866 256.94-.657 2.052-2.145-.002 1.74 1.25-.652 2.024 1.714-1.251 1.714 1.25-.652-2.022 1.74-1.251h-2.145l-.657-2.05Z" fill="#212832" fill-rule="evenodd" data-name="Trazado 272"/><path d="m1027.485 269.873 1.713 1.251-.651-2.023 1.74-1.251h-2.145l-.657-2.05-.657 2.054-2.146-.004 1.74 1.251-.651 2.023 1.714-1.251Z" fill="#212832" fill-rule="evenodd" data-name="Trazado 273"/><path d="m1030.523 276.737-.657-2.05-.657 2.052-2.145-.002 1.74 1.25-.652 2.024 1.714-1.253 1.714 1.253-.652-2.023 1.74-1.251h-2.145Z" fill="#212832" fill-rule="evenodd" data-name="Trazado 274"/><path d="m1037.026 283.24-.657-2.048-.656 2.05-2.146-.002 1.74 1.251-.65 2.023 1.713-1.25 1.713 1.25-.65-2.023 1.74-1.25h-2.147Z" fill="#212832" fill-rule="evenodd" data-name="Trazado 275"/><path d="m1045.887 285.597-.657-2.05-.656 2.052-2.146-.002 1.74 1.251-.651 2.023 1.714-1.251 1.713 1.251-.652-2.023 1.74-1.251h-2.145Z" fill="#212832" fill-rule="evenodd" data-name="Trazado 276"/><path d="m1054.747 283.24-.656-2.048-.658 2.05-2.144-.002 1.739 1.251-.651 2.023 1.714-1.25 1.714 1.25-.653-2.023 1.741-1.25h-2.146Z" fill="#212832" fill-rule="evenodd" data-name="Trazado 277"/><path d="m1061.253 276.737-.658-2.05-.658 2.052-2.144-.002 1.74 1.25-.652 2.024 1.714-1.253 1.714 1.253-.653-2.023 1.74-1.251h-2.143Z" fill="#212832" fill-rule="evenodd" data-name="Trazado 278"/><path d="m1063.607 267.825-.658-2.05-.656 2.052-2.146-.002 1.741 1.251-.65 2.023 1.711-1.253 1.714 1.253-.65-2.023 1.74-1.25h-2.146Z" fill="#212832" fill-rule="evenodd" data-name="Trazado 279"/><path d="m1058.88 262.237 1.714-1.251 1.715 1.25-.654-2.022 1.741-1.25h-2.144l-.658-2.05-.658 2.053-2.144-.002 1.741 1.249-.653 2.023Z" fill="#212832" fill-rule="evenodd" data-name="Trazado 280"/><path d="m1054.116 250.436-.656 2.052-2.146-.004 1.739 1.253-.651 2.023 1.716-1.253 1.712 1.253-.651-2.023 1.741-1.253h-2.148l-.656-2.048Z" fill="#212832" fill-rule="evenodd" data-name="Trazado 281"/><path d="m1102.823 293.469-5.493-8.211h-1.42v10.458h1.327v-8.218l5.493 8.218h1.42v-10.458h-1.327v8.211Z" fill="#212832" fill-rule="evenodd" data-name="Trazado 282"/><g data-name="Grupo 62"><g data-name="Grupo 61" transform="translate(1003 240)" clip-path="url(&quot;#a&quot;)"><path d="M106.422 47.969c-1.046 0-1.897.352-2.553 1.055-.657.704-.985 1.693-.985 2.968 0 1.232.325 2.189.974 2.871.649.683 1.527 1.024 2.636 1.024.879 0 1.602-.214 2.168-.642.566-.428.954-1.03 1.163-1.805l-1.327-.164c-.195.542-.459.937-.792 1.184-.333.248-.735.371-1.205.371-.633 0-1.161-.221-1.584-.663-.423-.443-.659-1.08-.706-1.912h5.65c.004-.152.007-.267.007-.343 0-1.25-.321-2.221-.963-2.91-.642-.689-1.47-1.034-2.483-1.034m-2.14 3.231c.043-.661.265-1.189.667-1.584.402-.394.898-.592 1.488-.592.651 0 1.181.249 1.59.742.267.319.428.797.485 1.434h-4.23Z" fill="#212832" fill-rule="evenodd" data-name="Trazado 283"/><path d="M117.472 48.14h-1.534l-1.277 1.79c-.176.243-.368.521-.578.835a22.07 22.07 0 0 0-.528-.849l-1.162-1.776h-1.605l2.56 3.638-2.767 3.938h1.555l1.99-2.989.414.635 1.555 2.354h1.577l-2.818-4.009 2.618-3.567Z" fill="#212832" fill-rule="evenodd" data-name="Trazado 284"/><path d="M120.982 54.618c-.191 0-.337-.031-.439-.093a.532.532 0 0 1-.221-.249c-.045-.105-.068-.34-.068-.707v-4.43h1.291v-.998h-1.291v-2.647l-1.277.77v1.877h-.941v.998h.941v4.359c0 .77.053 1.276.157 1.516.105.24.286.434.542.581.257.148.619.221 1.085.221.285 0 .608-.038.97-.114l-.186-1.134c-.233.033-.42.05-.563.05" fill="#212832" fill-rule="evenodd" data-name="Trazado 285"/><path d="M127.858 51.614h3.074v1.948c-.294.261-.727.507-1.298.738a4.636 4.636 0 0 1-1.755.346 4.33 4.33 0 0 1-1.954-.457 3.076 3.076 0 0 1-1.402-1.398c-.321-.628-.481-1.408-.481-2.34 0-.756.133-1.457.399-2.104.157-.376.377-.721.66-1.034.283-.314.655-.567 1.116-.76.462-.193 1.008-.289 1.641-.289.528 0 1.008.092 1.441.274.433.184.766.427.999.732.233.304.428.723.585 1.255l1.248-.342c-.181-.704-.445-1.275-.792-1.712-.347-.438-.826-.779-1.437-1.024-.611-.245-1.295-.367-2.051-.367-1.042 0-1.962.214-2.761.642-.799.428-1.411 1.083-1.837 1.965a6.48 6.48 0 0 0-.638 2.85c0 1.027.214 1.957.642 2.789a4.372 4.372 0 0 0 1.901 1.909c.839.439 1.773.659 2.8.659.761 0 1.503-.137 2.226-.41a7.823 7.823 0 0 0 2.104-1.223V50.38l-4.43.007v1.227Z" fill="#212832" fill-rule="evenodd" data-name="Trazado 286"/><path d="M137.275 47.969c-1.046 0-1.897.352-2.554 1.055-.657.704-.985 1.693-.985 2.968 0 1.232.325 2.189.974 2.871.649.683 1.528 1.024 2.636 1.024.879 0 1.603-.214 2.168-.642.567-.428.955-1.03 1.164-1.805l-1.328-.164c-.194.542-.459.937-.791 1.184-.334.248-.735.371-1.205.371-.633 0-1.161-.221-1.584-.663-.424-.443-.659-1.08-.707-1.912h5.651c.003-.152.007-.267.007-.343 0-1.25-.321-2.221-.964-2.91-.642-.689-1.469-1.034-2.482-1.034m-2.14 3.231c.043-.661.265-1.189.666-1.584.402-.394.898-.592 1.489-.592.651 0 1.181.249 1.59.742.266.319.427.797.485 1.434h-4.23Z" fill="#212832" fill-rule="evenodd" data-name="Trazado 287"/><path d="M147.975 48.861c-.19-.266-.477-.481-.86-.645a3.143 3.143 0 0 0-1.259-.247c-1.051 0-1.855.417-2.411 1.249v-1.077h-1.156v7.576h1.284v-4.138c0-.97.199-1.629.596-1.976a2.08 2.08 0 0 1 1.416-.521c.343 0 .641.077.896.232.254.155.431.362.531.621.1.259.15.65.15 1.173v4.609h1.284v-4.659c0-.594-.024-1.01-.072-1.248a2.487 2.487 0 0 0-.399-.949" fill="#212832" fill-rule="evenodd" data-name="Trazado 288"/><path d="M153.525 47.969c-1.046 0-1.897.352-2.553 1.055-.657.704-.985 1.693-.985 2.968 0 1.232.325 2.189.974 2.871.649.683 1.527 1.024 2.636 1.024.879 0 1.602-.214 2.168-.642.566-.428.954-1.03 1.163-1.805l-1.327-.164c-.195.542-.459.937-.792 1.184-.333.248-.734.371-1.205.371-.633 0-1.161-.221-1.584-.663-.423-.443-.659-1.08-.706-1.912h5.65c.004-.152.007-.267.007-.343 0-1.25-.321-2.221-.963-2.91-.642-.689-1.47-1.034-2.483-1.034m-2.14 3.231c.043-.661.265-1.189.667-1.584.402-.394.898-.592 1.488-.592.651 0 1.181.249 1.59.742.267.319.428.797.485 1.434h-4.23Z" fill="#212832" fill-rule="evenodd" data-name="Trazado 289"/><path d="M160.498 48.226c-.25.171-.522.525-.817 1.063V48.14h-1.155v7.576h1.284V51.75c0-.542.071-1.042.214-1.498.095-.3.254-.534.478-.703.223-.168.475-.253.756-.253.314 0 .628.093.941.278l.443-1.191c-.447-.276-.887-.414-1.32-.414-.3 0-.574.086-.824.257" fill="#212832" fill-rule="evenodd" data-name="Trazado 290"/><path d="M169.54 52.542V50.83c0-.571-.021-.966-.064-1.184a2.012 2.012 0 0 0-.4-.874c-.19-.231-.487-.422-.891-.574-.405-.152-.93-.229-1.577-.229-.651 0-1.224.09-1.719.268-.495.178-.873.433-1.134.763-.262.331-.449.765-.564 1.302l1.256.171c.138-.537.35-.912.638-1.123.288-.212.734-.318 1.338-.318.647 0 1.134.145 1.462.435.243.214.364.583.364 1.106 0 .048-.003.16-.007.335-.49.172-1.253.319-2.29.443a9.33 9.33 0 0 0-1.141.192 3.143 3.143 0 0 0-.924.421 2.099 2.099 0 0 0-.664.739 2.077 2.077 0 0 0-.253 1.016c0 .633.224 1.152.671 1.559.447.406 1.086.61 1.919.61.504 0 .976-.084 1.416-.25.439-.167.897-.452 1.373-.856.038.357.124.668.257.935h1.341a2.871 2.871 0 0 1-.325-.91c-.055-.316-.082-1.071-.082-2.265m-1.298-.157c0 .566-.069.994-.207 1.284a1.998 1.998 0 0 1-.849.888 2.641 2.641 0 0 1-1.32.325c-.499 0-.878-.114-1.137-.343a1.09 1.09 0 0 1-.389-.856c0-.223.059-.426.178-.61.119-.182.288-.322.507-.417.218-.095.592-.181 1.119-.257.933-.133 1.632-.295 2.098-.485v.471Z" fill="#212832" fill-rule="evenodd" data-name="Trazado 291"/><path d="M173.77 54.618c-.191 0-.337-.031-.439-.093a.532.532 0 0 1-.221-.249c-.045-.105-.068-.34-.068-.707v-4.43h1.291v-.998h-1.291v-2.647l-1.277.77v1.877h-.941v.998h.941v4.359c0 .77.053 1.276.157 1.516.105.24.286.434.542.581.257.148.619.221 1.085.221.285 0 .608-.038.97-.114l-.186-1.134c-.233.033-.42.05-.563.05" fill="#212832" fill-rule="evenodd" data-name="Trazado 292"/><path d="M175.597 45.258h1.284v1.477h-1.284v-1.477z" fill="#212832" fill-rule="evenodd" data-name="Rectángulo 112"/><path d="M175.597 48.14h1.284v7.576h-1.284V48.14z" fill="#212832" fill-rule="evenodd" data-name="Rectángulo 113"/><path d="M181.91 47.969c-.937 0-1.731.281-2.383.842-.78.675-1.169 1.714-1.169 3.117 0 1.28.327 2.259.98 2.939.654.681 1.512 1.02 2.572 1.02a3.72 3.72 0 0 0 1.83-.463c.559-.31.984-.743 1.277-1.302.292-.559.438-1.326.438-2.301 0-1.203-.33-2.146-.991-2.828-.661-.683-1.512-1.024-2.554-1.024m1.591 6.135a2.026 2.026 0 0 1-1.591.728 2.037 2.037 0 0 1-1.598-.724c-.423-.483-.635-1.21-.635-2.18 0-.97.212-1.695.635-2.176a2.04 2.04 0 0 1 1.598-.72c.633 0 1.162.241 1.587.724.426.483.639 1.192.639 2.129 0 .995-.212 1.734-.635 2.219" fill="#212832" fill-rule="evenodd" data-name="Trazado 293"/><path d="M192.646 48.861c-.19-.266-.477-.481-.86-.645a3.143 3.143 0 0 0-1.259-.247c-1.051 0-1.855.417-2.411 1.249v-1.077h-1.156v7.576h1.284v-4.138c0-.97.199-1.629.596-1.976a2.081 2.081 0 0 1 1.416-.521c.343 0 .641.077.896.232.254.155.431.362.531.621.1.259.15.65.15 1.173v4.609h1.284v-4.659c0-.594-.024-1.01-.072-1.248a2.487 2.487 0 0 0-.399-.949" fill="#212832" fill-rule="evenodd" data-name="Trazado 294"/><path d="M196.662 50.923h5.785v-1.228h-5.785v-3.202h6.178v-1.235h-7.562v10.458h7.804v-1.234h-6.42v-3.56Z" fill="#212832" fill-rule="evenodd" data-name="Trazado 295"/><path d="M211.857 51.293c0 1.313-.217 2.2-.649 2.661-.433.461-1.158.692-2.176.692-.594 0-1.097-.117-1.509-.35a1.922 1.922 0 0 1-.87-.995c-.169-.43-.253-1.1-.253-2.008v-6.035h-1.384V51.3c0 1.108.133 1.982.399 2.622a2.898 2.898 0 0 0 1.334 1.466c.623.337 1.425.506 2.404.506 1.008 0 1.823-.194 2.444-.581.62-.388 1.049-.891 1.287-1.509.238-.618.357-1.453.357-2.504v-6.042h-1.384v6.035Z" fill="#212832" fill-rule="evenodd" data-name="Trazado 296"/><path d="M95.276 8.402h5.051V6.355h-5.05V3.492h5.85V1.445h-8.294v12.098h2.443V8.402Z" fill="#212832" fill-rule="evenodd" data-name="Trazado 297"/><path d="M103.124 4.78h2.319v8.763h-2.319V4.78z" fill="#212832" fill-rule="evenodd" data-name="Rectángulo 114"/><path d="M103.124 1.445h2.319v2.146h-2.319V1.445z" fill="#212832" fill-rule="evenodd" data-name="Rectángulo 115"/><path d="M110.956 6.685c.319-.22.68-.33 1.081-.33.314 0 .582.077.805.231.223.154.384.37.483.648.099.278.148.89.148 1.836v4.473h2.319V8.096c0-.677-.042-1.196-.128-1.56a2.539 2.539 0 0 0-.454-.973c-.217-.286-.538-.522-.961-.706a3.485 3.485 0 0 0-1.403-.276c-1.161 0-2.124.495-2.888 1.485V4.779h-2.154v8.764h2.319v-3.97c0-.979.059-1.65.177-2.013s.337-.655.656-.875" fill="#212832" fill-rule="evenodd" data-name="Trazado 298"/><path d="M123.244 12.858c.088.302.162.531.223.685h2.294a4.984 4.984 0 0 1-.417-1.176c-.074-.366-.111-.934-.111-1.704l.025-2.707c0-1.007-.104-1.699-.31-2.076-.206-.377-.563-.688-1.069-.932-.506-.245-1.276-.368-2.31-.368-1.139 0-1.997.204-2.575.611-.578.407-.985 1.034-1.222 1.882l2.105.379c.143-.407.33-.692.561-.854.231-.162.553-.243.966-.243.61 0 1.026.095 1.246.284.22.19.33.508.33.954v.231c-.418.176-1.169.366-2.253.569-.804.154-1.418.334-1.844.541a2.31 2.31 0 0 0-.995.891 2.488 2.488 0 0 0-.355 1.324c0 .749.26 1.368.78 1.857.52.49 1.231.735 2.133.735.512 0 .993-.097 1.445-.289a4.171 4.171 0 0 0 1.27-.867c.017.044.044.135.083.273m-.264-3.062c0 .556-.031.933-.091 1.131a1.451 1.451 0 0 1-.553.767c-.379.275-.779.413-1.196.413-.375 0-.683-.118-.925-.355a1.138 1.138 0 0 1-.363-.842c0-.33.151-.602.454-.817.198-.132.619-.267 1.263-.404.643-.138 1.114-.256 1.411-.355v.462Z" fill="#212832" fill-rule="evenodd" data-name="Trazado 299"/><path d="M135.516 13.543V8.096c0-.676-.043-1.196-.128-1.559a2.551 2.551 0 0 0-.454-.974c-.217-.286-.538-.521-.961-.706a3.488 3.488 0 0 0-1.403-.276c-1.161 0-2.124.495-2.889 1.485V4.779h-2.154v8.764h2.319v-3.97c0-.979.059-1.65.178-2.013.118-.363.337-.655.656-.875.319-.22.679-.33 1.081-.33.314 0 .582.077.804.231.223.154.384.37.483.648.099.278.149.89.149 1.836v4.473h2.319Z" fill="#212832" fill-rule="evenodd" data-name="Trazado 300"/><path d="M141.565 13.741c1.128 0 2.027-.267 2.699-.801.671-.533 1.125-1.323 1.361-2.368l-2.277-.388c-.116.611-.314 1.041-.595 1.292-.28.25-.641.375-1.081.375-.588 0-1.057-.214-1.407-.644-.349-.429-.524-1.163-.524-2.203 0-.935.172-1.602.516-2.001.344-.399.805-.599 1.382-.599.435 0 .788.116 1.061.347.272.231.447.575.524 1.032l2.286-.413c-.275-.941-.728-1.641-1.358-2.1-.63-.46-1.478-.689-2.546-.689-1.304 0-2.338.403-3.103 1.209-.764.806-1.147 1.932-1.147 3.379 0 1.431.381 2.55 1.143 3.359.762.809 1.784 1.213 3.066 1.213" fill="#212832" fill-rule="evenodd" data-name="Trazado 301"/><path d="M147.268 4.78h2.319v8.763h-2.319V4.78z" fill="#212832" fill-rule="evenodd" data-name="Rectángulo 116"/><path d="M147.268 1.445h2.319v2.146h-2.319V1.445z" fill="#212832" fill-rule="evenodd" data-name="Rectángulo 117"/><path d="M159.164 12.367c-.074-.366-.111-.934-.111-1.704l.025-2.707c0-1.007-.104-1.699-.31-2.076-.206-.377-.563-.688-1.069-.932-.506-.245-1.276-.368-2.31-.368-1.139 0-1.997.204-2.575.611-.578.407-.985 1.034-1.222 1.882l2.105.379c.143-.407.33-.692.561-.854.231-.162.553-.243.966-.243.61 0 1.026.095 1.246.284.22.19.33.508.33.954v.231c-.418.176-1.169.366-2.253.569-.804.154-1.418.334-1.844.541a2.31 2.31 0 0 0-.995.891 2.488 2.488 0 0 0-.355 1.324c0 .749.26 1.368.78 1.857.52.49 1.231.735 2.133.735.512 0 .993-.097 1.445-.289a4.171 4.171 0 0 0 1.27-.867c.017.044.044.135.083.273.088.302.162.531.223.685h2.294a4.985 4.985 0 0 1-.417-1.176M156.8 9.796c0 .556-.03.933-.091 1.131a1.451 1.451 0 0 1-.553.767c-.379.275-.779.413-1.196.413-.375 0-.683-.118-.925-.355a1.138 1.138 0 0 1-.363-.842c0-.33.151-.602.454-.817.198-.132.619-.267 1.263-.404.643-.138 1.114-.256 1.411-.355v.462Z" fill="#212832" fill-rule="evenodd" data-name="Trazado 302"/><path d="M164.508 13.741a3.26 3.26 0 0 0 1.473-.367c.486-.245.909-.618 1.266-1.119v1.288h2.154V1.445h-2.319v4.357c-.715-.814-1.562-1.221-2.541-1.221-1.068 0-1.951.386-2.65 1.159-.698.773-1.048 1.902-1.048 3.388 0 1.452.359 2.584 1.077 3.396.718.811 1.581 1.217 2.588 1.217m-.739-6.73c.371-.438.832-.656 1.382-.656.567 0 1.032.221 1.395.664.363.443.545 1.168.545 2.175 0 .902-.187 1.58-.561 2.034-.375.454-.829.681-1.362.681-.672 0-1.194-.303-1.568-.908-.259-.418-.388-1.095-.388-2.03 0-.869.185-1.523.557-1.96" fill="#212832" fill-rule="evenodd" data-name="Trazado 303"/><path d="M173.383 13.197a5.087 5.087 0 0 0 2.298.544c1.298 0 2.375-.436 3.231-1.308.855-.872 1.283-1.971 1.283-3.297 0-1.314-.424-2.402-1.271-3.263-.847-.862-1.934-1.292-3.26-1.292-.858 0-1.635.19-2.331.569-.696.38-1.234.93-1.614 1.651a4.747 4.747 0 0 0-.569 2.236c0 1.007.19 1.861.569 2.563.38.701.935 1.234 1.664 1.597m.763-6.033c.412-.462.921-.693 1.527-.693.605 0 1.112.231 1.522.693.41.462.615 1.122.615 1.981 0 .88-.205 1.551-.615 2.013-.41.462-.917.693-1.522.693-.606 0-1.115-.231-1.527-.693-.413-.462-.619-1.128-.619-1.997 0-.869.206-1.535.619-1.997" fill="#212832" fill-rule="evenodd" data-name="Trazado 304"/><path d="M188.959 12.462c.435.468.849.798 1.243.99.393.193.832.289 1.316.289 1.017 0 1.884-.405 2.599-1.217.716-.811 1.073-1.949 1.073-3.412 0-1.425-.355-2.537-1.064-3.334-.71-.798-1.574-1.197-2.592-1.197-.583 0-1.114.138-1.593.413a3.232 3.232 0 0 0-1.138 1.072V4.779h-2.163v12.098h2.319v-4.415Zm.537-5.393a1.78 1.78 0 0 1 1.411-.656c.545 0 1.001.223 1.37.668.368.446.553 1.128.553 2.047 0 .985-.179 1.693-.536 2.125-.358.432-.806.648-1.346.648-.561 0-1.037-.235-1.427-.706-.391-.47-.586-1.198-.586-2.182 0-.859.187-1.506.561-1.944" fill="#212832" fill-rule="evenodd" data-name="Trazado 305"/><path d="M198.727 13.197a5.086 5.086 0 0 0 2.298.544c1.298 0 2.375-.436 3.231-1.308.855-.872 1.283-1.971 1.283-3.297 0-1.314-.424-2.402-1.271-3.263-.847-.862-1.934-1.292-3.26-1.292-.858 0-1.635.19-2.331.569-.696.38-1.234.93-1.614 1.651a4.747 4.747 0 0 0-.569 2.236c0 1.007.19 1.861.569 2.563.38.701.935 1.234 1.664 1.597m.763-6.033c.412-.462.921-.693 1.527-.693.605 0 1.112.231 1.522.693.41.462.615 1.122.615 1.981 0 .88-.205 1.551-.615 2.013-.41.462-.917.693-1.522.693-.606 0-1.115-.231-1.527-.693-.413-.462-.619-1.128-.619-1.997 0-.869.206-1.535.619-1.997" fill="#212832" fill-rule="evenodd" data-name="Trazado 306"/><path d="M209.575 10.836c0-1.491.065-2.47.194-2.938.129-.468.306-.791.532-.97.226-.178.501-.268.825-.268.336 0 .699.127 1.09.38l.718-2.022a2.941 2.941 0 0 0-1.527-.437c-.374 0-.708.093-1.003.28-.294.187-.626.575-.994 1.164V4.779h-2.154v8.764h2.319v-2.707Z" fill="#212832" fill-rule="evenodd" data-name="Trazado 307"/><path d="M92.8 21.726h2.319v12.098H92.8V21.726z" fill="#212832" fill-rule="evenodd" data-name="Rectángulo 118"/><path d="M104.696 32.649c-.074-.366-.111-.934-.111-1.705l.025-2.706c0-1.007-.104-1.699-.31-2.076-.206-.377-.563-.688-1.069-.932-.506-.245-1.276-.368-2.31-.368-1.139 0-1.997.204-2.575.611-.578.407-.985 1.034-1.222 1.882l2.105.379c.143-.407.33-.692.561-.854.231-.162.553-.243.966-.243.61 0 1.026.095 1.246.284.22.19.33.508.33.954v.231c-.418.176-1.169.366-2.253.569-.804.154-1.418.334-1.844.541a2.31 2.31 0 0 0-.995.891 2.488 2.488 0 0 0-.355 1.324c0 .749.26 1.368.78 1.857.52.49 1.231.735 2.133.735.512 0 .993-.097 1.445-.289a4.171 4.171 0 0 0 1.27-.867c.017.044.044.135.083.273.088.302.162.531.223.685h2.294a5 5 0 0 1-.417-1.176m-2.364-2.571c0 .556-.031.932-.091 1.13a1.45 1.45 0 0 1-.553.768c-.379.275-.779.413-1.196.413-.375 0-.683-.119-.925-.355a1.138 1.138 0 0 1-.363-.842c0-.33.151-.602.454-.817.198-.132.619-.267 1.263-.404.643-.138 1.114-.256 1.411-.355v.462Z" fill="#212832" fill-rule="evenodd" data-name="Trazado 308"/><path d="M111.592 21.726v6.454c0 1.353.08 2.376.239 3.069.11.468.339.915.685 1.342.347.426.819.773 1.416 1.039.597.267 1.473.4 2.628.4.958 0 1.733-.122 2.327-.367.594-.244 1.069-.573 1.424-.986.355-.413.598-.919.73-1.518.132-.6.198-1.626.198-3.079v-6.354h-2.442v6.693c0 .957-.036 1.642-.108 2.055-.071.412-.283.76-.635 1.044-.352.283-.875.425-1.568.425-.682 0-1.22-.15-1.613-.45a1.956 1.956 0 0 1-.747-1.193c-.061-.308-.091-.982-.091-2.021v-6.553h-2.443Z" fill="#212832" fill-rule="evenodd" data-name="Trazado 309"/><path d="M123.781 25.06v8.764h2.319v-3.969c0-.979.059-1.651.177-2.014.119-.363.337-.654.656-.875.319-.22.68-.33 1.081-.33.314 0 .582.077.805.231.223.154.384.37.483.648.099.278.148.89.148 1.836v4.473h2.32v-5.446c0-.677-.043-1.197-.129-1.56a2.556 2.556 0 0 0-.453-.974c-.218-.286-.538-.521-.962-.706a3.485 3.485 0 0 0-1.403-.276c-1.161 0-2.124.495-2.888 1.485V25.06h-2.154Z" fill="#212832" fill-rule="evenodd" data-name="Trazado 310"/><path d="M134.121 25.061h2.319v8.764h-2.319v-8.764z" fill="#212832" fill-rule="evenodd" data-name="Rectángulo 119"/><path d="M134.121 21.726h2.319v2.146h-2.319v-2.146z" fill="#212832" fill-rule="evenodd" data-name="Rectángulo 120"/><path d="M145.37 21.52h-2.6l-1.14 2.468h1.47l2.27-2.468Z" fill="#212832" fill-rule="evenodd" data-name="Trazado 311"/><path d="M140.464 25.431c-.696.38-1.234.93-1.614 1.651a4.747 4.747 0 0 0-.569 2.236c0 1.007.19 1.861.569 2.563a3.74 3.74 0 0 0 1.663 1.597 5.09 5.09 0 0 0 2.298.544c1.299 0 2.376-.436 3.232-1.308.855-.872 1.283-1.971 1.283-3.297 0-1.314-.424-2.402-1.271-3.263-.848-.862-1.934-1.292-3.26-1.292-.858 0-1.635.19-2.331.569m3.862 2.014c.41.462.615 1.122.615 1.981 0 .88-.205 1.551-.615 2.013-.41.462-.918.693-1.523.693-.605 0-1.114-.231-1.526-.693-.413-.462-.619-1.128-.619-1.997 0-.869.206-1.535.619-1.997.412-.462.921-.693 1.526-.693s1.113.231 1.523.693" fill="#212832" fill-rule="evenodd" data-name="Trazado 312"/><path d="M156.531 25.844c-.217-.286-.538-.521-.962-.706a3.48 3.48 0 0 0-1.402-.276c-1.161 0-2.124.495-2.889 1.485V25.06h-2.154v8.764h2.319v-3.969c0-.979.059-1.651.178-2.014.118-.363.337-.654.656-.875.319-.22.679-.33 1.081-.33.313 0 .582.077.804.231.223.154.384.37.483.648.099.278.149.89.149 1.836v4.473h2.319v-5.446c0-.677-.043-1.197-.128-1.56a2.573 2.573 0 0 0-.454-.974" fill="#212832" fill-rule="evenodd" data-name="Trazado 313"/><path d="M173.148 23.773v-2.047h-8.97v12.099h9.2v-2.04h-6.758v-3.291h6.074v-2.04h-6.074v-2.681h6.528Z" fill="#212832" fill-rule="evenodd" data-name="Trazado 314"/><path d="M181.202 32.512v1.312h2.154V25.06h-2.319v3.697c0 1.255-.058 2.043-.173 2.365a1.66 1.66 0 0 1-.644.808 1.822 1.822 0 0 1-1.065.326c-.346 0-.632-.081-.858-.243a1.233 1.233 0 0 1-.466-.66c-.086-.278-.128-1.033-.128-2.266V25.06h-2.319v5.546c0 .825.104 1.472.313 1.939.21.468.548.831 1.016 1.089a3.21 3.21 0 0 0 1.584.388c.578 0 1.127-.134 1.646-.404.52-.27.94-.638 1.259-1.106" fill="#212832" fill-rule="evenodd" data-name="Trazado 315"/><path d="M187.978 31.118c0-1.491.065-2.47.194-2.938.129-.468.306-.791.532-.97.226-.178.501-.268.825-.268.336 0 .699.127 1.09.38l.718-2.022a2.941 2.941 0 0 0-1.527-.437c-.374 0-.708.093-1.003.28-.294.187-.626.575-.994 1.164v-1.246h-2.154v8.764h2.319v-2.707Z" fill="#212832" fill-rule="evenodd" data-name="Trazado 316"/><path d="M199.561 32.715c.855-.872 1.283-1.972 1.283-3.298 0-1.315-.424-2.403-1.271-3.264-.847-.861-1.934-1.291-3.26-1.291-.858 0-1.635.191-2.331.569a3.916 3.916 0 0 0-1.614 1.652 4.745 4.745 0 0 0-.569 2.236c0 1.007.19 1.861.569 2.563.38.701.935 1.233 1.664 1.597a5.099 5.099 0 0 0 2.298.543c1.298 0 2.375-.435 3.231-1.307m-4.766-1.276c-.413-.462-.619-1.127-.619-1.997 0-.869.206-1.535.619-1.997a1.964 1.964 0 0 1 1.527-.692c.605 0 1.112.23 1.522.692.41.462.615 1.122.615 1.982 0 .879-.205 1.55-.615 2.012a1.95 1.95 0 0 1-1.522.693c-.606 0-1.115-.23-1.527-.693" fill="#212832" fill-rule="evenodd" data-name="Trazado 317"/><path d="M206.154 33.734a2.96 2.96 0 0 0 1.316.289c1.018 0 1.884-.406 2.6-1.217.715-.812 1.072-1.949 1.072-3.413 0-1.425-.355-2.536-1.064-3.334-.71-.798-1.574-1.197-2.592-1.197-.583 0-1.114.138-1.592.413a3.229 3.229 0 0 0-1.139 1.073V25.06h-2.163v12.099h2.32v-4.416c.434.468.848.798 1.242.991m-1.267-4.44c0-.858.187-1.506.561-1.944a1.78 1.78 0 0 1 1.411-.656c.545 0 1.001.223 1.37.669.369.446.553 1.128.553 2.047 0 .984-.179 1.693-.536 2.125-.358.432-.806.647-1.345.647-.562 0-1.038-.235-1.428-.705-.391-.471-.586-1.198-.586-2.183" fill="#212832" fill-rule="evenodd" data-name="Trazado 318"/><path d="M219.411 26.153c-.753-.86-1.782-1.29-3.086-1.29-1.161 0-2.121.411-2.88 1.233-.76.823-1.139 1.961-1.139 3.413 0 1.216.289 2.223.867 3.019.731.996 1.859 1.495 3.383 1.495.963 0 1.765-.221 2.406-.665.641-.442 1.11-1.087 1.407-1.935l-2.311-.387c-.127.44-.314.759-.561.957-.248.198-.553.297-.916.297-.534 0-.979-.191-1.337-.573-.358-.384-.545-.918-.561-1.606h5.81c.033-1.778-.328-3.097-1.082-3.958m-4.687 2.538c-.006-.632.157-1.132.487-1.501.33-.369.748-.553 1.254-.553.473 0 .875.175 1.205.524.33.349.504.86.52 1.53h-3.466Z" fill="#212832" fill-rule="evenodd" data-name="Trazado 319"/><path d="M229.583 32.649c-.074-.366-.111-.934-.111-1.705l.025-2.706c0-1.007-.104-1.699-.31-2.076-.206-.377-.563-.688-1.069-.932-.506-.245-1.276-.368-2.31-.368-1.139 0-1.997.204-2.575.611-.578.407-.985 1.034-1.222 1.882l2.105.379c.143-.407.33-.692.561-.854.231-.162.553-.243.966-.243.61 0 1.026.095 1.246.284.22.19.33.508.33.954v.231c-.418.176-1.169.366-2.253.569-.804.154-1.418.334-1.844.541a2.31 2.31 0 0 0-.995.891 2.488 2.488 0 0 0-.355 1.324c0 .749.26 1.368.78 1.857.52.49 1.231.735 2.133.735.512 0 .993-.097 1.445-.289a4.171 4.171 0 0 0 1.27-.867c.017.044.044.135.083.273.088.302.162.531.223.685H230a5.001 5.001 0 0 1-.417-1.176m-2.364-2.571c0 .556-.03.932-.091 1.13a1.45 1.45 0 0 1-.553.768c-.379.275-.779.413-1.196.413-.375 0-.683-.119-.925-.355a1.138 1.138 0 0 1-.363-.842c0-.33.151-.602.454-.817.198-.132.619-.267 1.263-.404.643-.138 1.114-.256 1.411-.355v.462Z" fill="#212832" fill-rule="evenodd" data-name="Trazado 320"/></g></g></g><defs><clipPath id="a"><path d="M0 0h230v57.374H0V0z" data-name="Rectángulo 121"/></clipPath></defs></svg>