<svg xmlns="http://www.w3.org/2000/svg" width="1920" height="330.95" viewBox="0 133.976 1920 330.95"><g data-name="Maxibar"><path d="M1887.012 137.503c.091-.054.187-.113.296-.185 0 0 .671-.443.333-.706-1.014-.879-2.365-1.758-3.716-2.636l-6.047 1.868c-1.67 2.385-7.724 2.93-15.799 3.04-8.412.11-17.159.398-25.57.773-6.727.37-10.432-.149-13.133-1.905-4.05-2.458-11.792-2.879-16.829-.749-7.386 3.194-17.145 2.867-28.253 2.367a228.242 228.242 0 0 0-17.498-.13c-10.43.204-20.858.849-31.626.965-3.028.008-6.733-.775-8.756-1.476-2.359-.698-3.374-1.754-6.75-3.773-3.012 3.094-7.378 4.604-16.8 4.718-8.412.022-17.158.486-25.571.508l-5.73-1.836c-2.365-1.757-4.724-2.456-10.098-.502-1.343.444-4.032.98-6.051.985-9.421.202-18.507.049-27.927.339-10.43.38-20.868-1.003-31.626.965-4.034.804-13.123-.053-17.152 1.897-.335.177-2.017.182-3.362.362-1.357-2.201-9.77-2.002-13.813-3.226-2.022-.524-.011-1.94-.688-2.908-.34-.528-4.046-1.312-4.046-1.312-2.019-.083-5.044.543-5.715.986-6.708 4.249-11.413 5.144-26.892 5.184-5.384.015-10.769-.147-15.817-.31-6.395-.248-12.455-.761-8.092-3.065l-2.698-1.227c-6.394.017-12.45.209-20.188.494 0 0-1.342.621-2.349 1.153-7.379 4.604-21.512 4.553-36.993 3.977-13.8-.581-27.598-.897-41.396-1.125a4770.96 4770.96 0 0 0-49.803-.397c-5.048-.075-7.741-.509-6.74-1.922.999-1.943-2.708-3.079-9.775-3.237-7.405-.245-14.134-.315-18.834 1.902-4.699 2.305-11.418 4.262-17.128 6.305-2.703-2.108 1.993-4.942-12.473-4.375-1.346.003-4.718-1.222-4.721-1.928-.345-1.497-3.71-1.665-8.085-1.653-5.384.014-10.431.116-15.814.218-5.384.014-8.074.462-9.411 2.052-1.673 1.945-6.045 2.221-10.762 1.087-10.782-2.793-13.14-3.139-21.888-3.116-16.153-.045-31.967.085-48.119.215-11.776.208-23.22-.291-33.636 2.382-6.05 1.603-14.13.566-21.883-2.058-4.383-1.576-10.778-1.735-16.49-.133-9.071 2.581-19.496 3.931-32.285 3.524-12.45-.32-24.904-.816-37.359-1.488-3.365-.167-7.407-.95-9.094-1.739-5.061-2.632-14.471-.403-21.206-1.355-4.378-.606-8.746.464-10.085 1.878-1.338 1.503-5.376 1.513-9.081.818-15.157-2.87-32.318-2.913-49.815-2.69-5.72.104-18.173-.392-9.07 3.022.674.174-1.005.884-1.005.884-5.719.28-11.774.649-17.494.576-5.385-.163-4.382-1.311-3.041-2.461 1.001-1.413-3.039-1.844-7.412-1.656-4.374.1-9.421.378-13.119.917-7.733 1.166-14.456 2.595-21.852 3.761-4.372.629-10.425 1.262-14.802.921-8.078-.596-15.488-1.811-25.252-3.108 0 0-2.36-.787-4.042-.606-10.091.82-18.173-.305-27.261-.986-2.693-.169-9.08.994-9.08.994-.661 2.47-6.045 2.308-12.776 2.15-25.24-.463-50.142-.838-75.382-1.299-4.711-.076-7.405-.51-7.748-1.832-.341-.616-3.711-1.665-3.711-1.665-8.412-.066-16.824.044-25.909.157 0 0-1.679.621-1.342.708 7.758 3.507-4.697 2.746-10.079 3.113-10.428.557-10.429.469-14.146-2.607-.339-.529-3.709-1.401-3.709-1.401-6.394-.16-13.124.034-19.516.139l-.67.531c3.367.432 6.397.865 10.775 1.47-11.43 1.882-23.211 1.385-34.313 1.679-2.356.094-7.073-1.04-8.086-1.831-3.713-2.371-10.78-2.352-18.183-2.332-6.729.017-13.123.035-19.852.228-3.365.009-6.392.37-9.755.643l.342 1.058 23.891-.063c-4.364 1.862-9.403 3.551-14.787 3.477-9.422.025-21.874-.118-27.602-1.69-11.457-3.056-20.184 1.023-29.612-.098-5.387-.603-10.775-1.294-16.497-1.72-6.396-.512-13.467-1.375-19.522-1.094-13.457.652-26.919.423-40.378.283-2.019.005-4.375-.077-7.739.285 0 0-2.017.358-2.687.712-2.012 1.416-.318 3.792-8.732 3.462-3.366-.167-5.733-2.365-8.431-3.592l-4.037.01c-17.501-.394-36.353-2.108-44.731 4.439-2.682 1.947-15.808 1.364-19.52-.742-6.412-3.333-6.412-3.333-19.193-2.242-5.718.456-11.774.649-17.491 1.281-15.134 1.627-30.29-.978-45.764-.055-16.146 1.101-33.655-1.146-50.467 1.191-5.044.719-10.766.382-15.468 2.158-4.367 1.51-14.796 1.978-23.206 2.441-5.046.278-7.742-.508-6.069-2.364 3.014-2.829.655-3.441-9.104-3.503-3.365.009-6.728.283-10.092.38-24.897.859-50.474.045-74.351 2.753-2.018.27-7.739.109-7.739.109-3.133.213-6.246.432-9.355.651v316.367c3.472-.067 6.944-.133 10.415-.195.673 0 2.019-.089 2.019-.089 9.422-1.322 18.508-1.234 28.265.353 3.366.529 8.75.177 13.461.177 3.028 0 6.729-.441 9.085-.089 8.748 1.323 15.479.706 21.872-.881 4.374-1.147 9.084-1.411 13.796-.088 5.383 1.41 9.758 1.499 15.142.088 9.085-2.293 19.516-2.91 31.294-1.499 6.057.793 10.432.441 16.152-.529 11.44-1.94 23.891-2.91 36.004.264 5.384 1.411 12.451 1.323 18.844.441 26.919-3.879 38.024-3.791 68.981.265 3.702.441 9.758-.176 14.806-.265-1.347-2.997 6.729-2.116 13.123-2.38 5.384-.177 12.113-.529 16.152-1.411 8.277-1.995 11.342-.576 14.644 1.067 6.861.277 5.875 1.417 5.208 3.165 0 0 3.366.617 6.394.97 0 0 2.356-.529 3.701-.882l2.02-1.411c-1.01-2.733 5.72-2.733 13.123-2.645 3.365.089 6.729 0 10.095 0 7.402 0 17.161-.793 12.449 3.175 0 0 3.702 1.058 5.721 1.058 6.394.176 12.787.176 19.18 0 6.057-.177 11.441-.706 17.161-1.147 9.422-.793 9.422.97 10.432 2.557 9.084-1.41 18.17-2.733 26.919-3.967 11.44 3.791 21.199 4.496 38.023 3.174 5.048-.441 10.768-.617 15.143-.265 13.796.97 13.459 1.058 22.881-1.499 2.355-.617 6.394-1.322 9.086-1.234 8.748.176 17.16.793 25.91 1.146 4.374.265 9.758.882 13.46.441 17.833-2.028 34.322 2.292 52.155.705 2.02-.176 5.384.97 8.076 1.323s8.412.794 8.412.794c15.479-2.205 29.949-.794 44.754.264 13.46.97 26.247.97 38.024-1.587 3.701-.882 9.422-1.852 14.133-1.852 16.488.089 32.976.441 49.464.882 3.365.088 9.086.97 9.422 1.499.336 3.88 9.085 2.116 14.805 1.587 11.105-.97 21.199-1.94 32.303.176 4.711.882 15.143 1.235 19.181.441 12.113-2.381 23.891-.97 36.004-.882 18.171.177 35.669 3.527 54.513 1.235 1.682-.177 4.374.088 5.72.353 6.393 1.146 11.104.176 16.488-.617 8.076-1.235 16.824-3.792 23.891.441 1.009.528 5.72.793 9.085.881 17.834.265 35.332.529 53.166.529 3.365 0 6.73-.882 10.095-1.41 6.393-1.059 12.787-1.412 17.498.352 4.374 1.587 8.412 1.322 13.459.353 8.076-1.587 15.479-2.028 22.209.617 1.346.441 8.412.264 8.412.264 4.711-3.086 15.815-1.94 24.227-2.557 3.366-.352 8.75-.617 9.422-1.146 3.029-2.204 7.066-1.763 11.44-.617 3.366.882 5.385 2.204 10.096 3.791 0 0 2.692.441 5.047.617 3.365.177 7.404.089 11.105.265 7.403.265 13.123-.265 15.478-2.293 1.01-.793 2.356-1.586 3.365-2.292 7.739 1.764 14.133 3.351 21.536 4.761 1.682.353 8.412.177 8.748-.088 4.375-3.615 14.806-2.204 23.218-2.204 15.479-.177 30.958-.353 46.1-.264 4.374 0 10.431.352 12.114 1.146 5.72 2.38 12.787 1.41 20.526 1.234-1.01-.529-1.346-.705-4.038-1.499 0 0-5.048-.881-4.374-1.411 1.682-1.587 5.72-.441 9.421-.264 5.048.353 10.432.353 15.816.441 13.123 0 26.246.088 39.706 0 7.065 0 12.449-.088 15.815 2.116 3.028 2.028 10.431 2.028 16.824.97 4.039-.618 7.067-1.587 10.432-2.381 5.384-1.234 20.19-1.499 21.871-.088 4.375 3.791 15.816 1.763 23.891 2.557l3.365-1.146s-1.01-.441-4.71-.882c0 0-2.356 0-4.711-.088 7.067-.705 14.469-1.676 17.498 1.851 0 0 7.066.353 11.44.441 5.384 0 3.029-1.058 2.692-1.939 0-.353 5.048-1.058 5.048-1.058 6.393.264 17.497-1.499 17.161 2.38 0 0 3.701.441 5.047.265 3.365-.53 6.73-1.235 10.095-1.764 10.768-1.587 10.768-1.499 21.536 1.323h7.402s2.692-.529 3.702-.353c8.748 1.763 14.468.176 22.545-.97 9.085-1.411 20.189-1.499 29.948.177 12.113 2.115 18.843 2.115 31.63-.265 7.066-1.323 14.133-2.292 22.208-1.234 13.124 1.851 27.929.969 41.726 1.234 10.094.265 21.198-.441 29.947.441 8.076.793 12.114.441 17.834-.706 3.029-.617 7.739-1.587 9.759-1.41 10.431 1.323 24.901-.97 32.975 2.292.674.265 5.722.088 5.722.088 5.384-2.997 12.113-1.234 18.843-.705 3.365.265 9.085.088 11.104-.441 6.429-1.758 13.092-1.568 20.178-1.201V138.046a3923.278 3923.278 0 0 1-32.988-.543M123.477 448.971s-1.682-.617-4.374-1.146c3.364-.441 5.384-.882 7.739-.97l3.365.97c-1.683.353-3.701.881-6.73 1.146m35.668-.176-1.01-.265s.337-.264.674-.441c.336.089 1.345.265 1.345.265l-1.009.441Zm30.396-281.177-.676-.439 2.694.257c-.673.091-1.346.092-2.018.182m14.109-4.357c-3.019 1.594-7.731 1.519-12.782.827l.671-.531c3.362-.538 7.06-1.077 10.759-1.615.675.439 1.688 1.053 1.352 1.319m14.131-.39 1.01-.003.001.176c-.337-.087-1.011-.173-1.011-.173m211.904 292.713-2.692-1.058c1.01-.088 3.366-.353 3.366-.353 1.345.089 2.355.353 4.71.794-2.692.264-5.384.617-5.384.617m334.266-285.43c-2.019-.083-5.724-.69-5.726-1.131-.341-.705.662-1.942 2.68-2.212 3.698-.538 8.743-.992 12.783-.739 6.395.336 12.457 1.202 20.201 2.063-10.082 2.496-19.842 2.345-29.938 2.019m94.219.103c-6.729.106-14.13.567-22.89-1.526 9.758-.202 16.15-.396 23.889-.416 0 0 2.023.612 2.361.964l-3.36.978Zm85.76-8.955s-1.012-.263-2.022-.436l4.036-.275s.338.176 1.012.261c-.672.179-3.026.45-3.026.45m137.542 299.66c-1.01-.088-3.028-.352-3.028-.352-.337-.177 1.009-.794 1.009-.794l3.028.441-1.009.705Zm100.611-.969c-1.346-.177-2.691-.441-4.374-.618 1.009-.176 3.028-.441 3.028-.441 1.683 0 3.028.265 4.711.441-1.009.177-3.365.618-3.365.618m23.971-299.738s-1.685-.436-4.716-.869c3.026-.537 6.724-1.252 6.724-1.252l4.041.782-6.049 1.339Zm51.828 1.45c-3.702.098-7.405-.421-12.118-.673 3.695-1.156 5.374-1.866 8.063-2.402 2.354-.447 5.382-.544 8.072-.815 1.351.878 3.374 1.754 3.381 3.165 0 0-4.706.718-7.398.725m243.966 1.471-.338-.352c.673.086 2.357.258 2.357.258-.673.002-1.346.092-2.019.094m121.377 297.434s-.673-.177-.673-.441l2.019-.265s1.01.177 1.682.353c-.672.176-3.028.353-3.028.353m148.82-299.031-.002-.353 1.684.172-1.682.181Z" fill="#f2c77c" fill-rule="evenodd" data-name="Trazado 1209"/><path d="M1887.012 137.503c.091-.054.187-.113.296-.185 0 0 .671-.443.333-.706-1.014-.879-2.365-1.758-3.716-2.636l-6.047 1.868c-1.67 2.385-7.724 2.93-15.799 3.04-8.412.11-17.159.398-25.57.773-6.727.37-10.432-.149-13.133-1.905-4.05-2.458-11.792-2.879-16.829-.749-7.386 3.194-17.145 2.867-28.253 2.367a228.242 228.242 0 0 0-17.498-.13c-10.43.204-20.858.849-31.626.965-3.028.008-6.733-.775-8.756-1.476-2.359-.698-3.374-1.754-6.75-3.773-3.012 3.094-7.378 4.604-16.8 4.718-8.412.022-17.158.486-25.571.508l-5.73-1.836c-2.365-1.757-4.724-2.456-10.098-.502-1.343.444-4.032.98-6.051.985-9.421.202-18.507.049-27.927.339-10.43.38-20.868-1.003-31.626.965-4.034.804-13.123-.053-17.152 1.897-.335.177-2.017.182-3.362.362-1.357-2.201-9.77-2.002-13.813-3.226-2.022-.524-.011-1.94-.688-2.908-.34-.528-4.046-1.312-4.046-1.312-2.019-.083-5.044.543-5.715.986-6.708 4.249-11.413 5.144-26.892 5.184-5.384.015-10.769-.147-15.817-.31-6.395-.248-12.455-.761-8.092-3.065l-2.698-1.227c-6.394.017-12.45.209-20.188.494 0 0-1.342.621-2.349 1.153-7.379 4.604-21.512 4.553-36.993 3.977-13.8-.581-27.598-.897-41.396-1.125a4770.96 4770.96 0 0 0-49.803-.397c-5.048-.075-7.741-.509-6.74-1.922.999-1.943-2.708-3.079-9.775-3.237-7.405-.245-14.134-.315-18.834 1.902-4.699 2.305-11.418 4.262-17.128 6.305-2.703-2.108 1.993-4.942-12.473-4.375-1.346.003-4.718-1.222-4.721-1.928-.345-1.497-3.71-1.665-8.085-1.653-5.384.014-10.431.116-15.814.218-5.384.014-8.074.462-9.411 2.052-1.673 1.945-6.045 2.221-10.762 1.087-10.782-2.793-13.14-3.139-21.888-3.116-16.153-.045-31.967.085-48.119.215-11.776.208-23.22-.291-33.636 2.382-6.05 1.603-14.13.566-21.883-2.058-4.383-1.576-10.778-1.735-16.49-.133-9.071 2.581-19.496 3.931-32.285 3.524-12.45-.32-24.904-.816-37.359-1.488-3.365-.167-7.407-.95-9.094-1.739-5.061-2.632-14.471-.403-21.206-1.355-4.378-.606-8.746.464-10.085 1.878-1.338 1.503-5.376 1.513-9.081.818-15.157-2.87-32.318-2.913-49.815-2.69-5.72.104-18.173-.392-9.07 3.022.674.174-1.005.884-1.005.884-5.719.28-11.774.649-17.494.576-5.385-.163-4.382-1.311-3.041-2.461 1.001-1.413-3.039-1.844-7.412-1.656-4.374.1-9.421.378-13.119.917-7.733 1.166-14.456 2.595-21.852 3.761-4.372.629-10.425 1.262-14.802.921-8.078-.596-15.488-1.811-25.252-3.108 0 0-2.36-.787-4.042-.606-10.091.82-18.173-.305-27.261-.986-2.693-.169-9.08.994-9.08.994-.661 2.47-6.045 2.308-12.776 2.15-25.24-.463-50.142-.838-75.382-1.299-4.711-.076-7.405-.51-7.748-1.832-.341-.616-3.711-1.665-3.711-1.665-8.412-.066-16.824.044-25.909.157 0 0-1.679.621-1.342.708 7.758 3.507-4.697 2.746-10.079 3.113-10.428.557-10.429.469-14.146-2.607-.339-.529-3.709-1.401-3.709-1.401-6.394-.16-13.124.034-19.516.139l-.67.531c3.367.432 6.397.865 10.775 1.47-11.43 1.882-23.211 1.385-34.313 1.679-2.356.094-7.073-1.04-8.086-1.831-3.713-2.371-10.78-2.352-18.183-2.332-6.729.017-13.123.035-19.852.228-3.365.009-6.392.37-9.755.643l.342 1.058 23.891-.063c-4.364 1.862-9.403 3.551-14.787 3.477-9.422.025-21.874-.118-27.602-1.69-11.457-3.056-20.184 1.023-29.612-.098-5.387-.603-10.775-1.294-16.497-1.72-6.396-.512-13.467-1.375-19.522-1.094-13.457.652-26.919.423-40.378.283-2.019.005-4.375-.077-7.739.285 0 0-2.017.358-2.687.712-2.012 1.416-.318 3.792-8.732 3.462-3.366-.167-5.733-2.365-8.431-3.592l-4.037.01c-17.501-.394-36.353-2.108-44.731 4.439-2.682 1.947-15.808 1.364-19.52-.742-6.412-3.333-6.412-3.333-19.193-2.242-5.718.456-11.774.649-17.491 1.281-15.134 1.627-30.29-.978-45.764-.055-16.146 1.101-33.655-1.146-50.467 1.191-5.044.719-10.766.382-15.468 2.158-4.367 1.51-14.796 1.978-23.206 2.441-5.046.278-7.742-.508-6.069-2.364 3.014-2.829.655-3.441-9.104-3.503-3.365.009-6.728.283-10.092.38-24.897.859-50.474.045-74.351 2.753-2.018.27-7.739.109-7.739.109-3.133.213-6.246.432-9.355.651v316.367c3.472-.067 6.944-.133 10.415-.195.673 0 2.019-.089 2.019-.089 9.422-1.322 18.508-1.234 28.265.353 3.366.529 8.75.177 13.461.177 3.028 0 6.729-.441 9.085-.089 8.748 1.323 15.479.706 21.872-.881 4.374-1.147 9.084-1.411 13.796-.088 5.383 1.41 9.758 1.499 15.142.088 9.085-2.293 19.516-2.91 31.294-1.499 6.057.793 10.432.441 16.152-.529 11.44-1.94 23.891-2.91 36.004.264 5.384 1.411 12.451 1.323 18.844.441 26.919-3.879 38.024-3.791 68.981.265 3.702.441 9.758-.176 14.806-.265-1.347-2.997 6.729-2.116 13.123-2.38 5.384-.177 12.113-.529 16.152-1.411 8.277-1.995 11.342-.576 14.644 1.067 6.861.277 5.875 1.417 5.208 3.165 0 0 3.366.617 6.394.97 0 0 2.356-.529 3.701-.882l2.02-1.411c-1.01-2.733 5.72-2.733 13.123-2.645 3.365.089 6.729 0 10.095 0 7.402 0 17.161-.793 12.449 3.175 0 0 3.702 1.058 5.721 1.058 6.394.176 12.787.176 19.18 0 6.057-.177 11.441-.706 17.161-1.147 9.422-.793 9.422.97 10.432 2.557 9.084-1.41 18.17-2.733 26.919-3.967 11.44 3.791 21.199 4.496 38.023 3.174 5.048-.441 10.768-.617 15.143-.265 13.796.97 13.459 1.058 22.881-1.499 2.355-.617 6.394-1.322 9.086-1.234 8.748.176 17.16.793 25.91 1.146 4.374.265 9.758.882 13.46.441 17.833-2.028 34.322 2.292 52.155.705 2.02-.176 5.384.97 8.076 1.323s8.412.794 8.412.794c15.479-2.205 29.949-.794 44.754.264 13.46.97 26.247.97 38.024-1.587 3.701-.882 9.422-1.852 14.133-1.852 16.488.089 32.976.441 49.464.882 3.365.088 9.086.97 9.422 1.499.336 3.88 9.085 2.116 14.805 1.587 11.105-.97 21.199-1.94 32.303.176 4.711.882 15.143 1.235 19.181.441 12.113-2.381 23.891-.97 36.004-.882 18.171.177 35.669 3.527 54.513 1.235 1.682-.177 4.374.088 5.72.353 6.393 1.146 11.104.176 16.488-.617 8.076-1.235 16.824-3.792 23.891.441 1.009.528 5.72.793 9.085.881 17.834.265 35.332.529 53.166.529 3.365 0 6.73-.882 10.095-1.41 6.393-1.059 12.787-1.412 17.498.352 4.374 1.587 8.412 1.322 13.459.353 8.076-1.587 15.479-2.028 22.209.617 1.346.441 8.412.264 8.412.264 4.711-3.086 15.815-1.94 24.227-2.557 3.366-.352 8.75-.617 9.422-1.146 3.029-2.204 7.066-1.763 11.44-.617 3.366.882 5.385 2.204 10.096 3.791 0 0 2.692.441 5.047.617 3.365.177 7.404.089 11.105.265 7.403.265 13.123-.265 15.478-2.293 1.01-.793 2.356-1.586 3.365-2.292 7.739 1.764 14.133 3.351 21.536 4.761 1.682.353 8.412.177 8.748-.088 4.375-3.615 14.806-2.204 23.218-2.204 15.479-.177 30.958-.353 46.1-.264 4.374 0 10.431.352 12.114 1.146 5.72 2.38 12.787 1.41 20.526 1.234-1.01-.529-1.346-.705-4.038-1.499 0 0-5.048-.881-4.374-1.411 1.682-1.587 5.72-.441 9.421-.264 5.048.353 10.432.353 15.816.441 13.123 0 26.246.088 39.706 0 7.065 0 12.449-.088 15.815 2.116 3.028 2.028 10.431 2.028 16.824.97 4.039-.618 7.067-1.587 10.432-2.381 5.384-1.234 20.19-1.499 21.871-.088 4.375 3.791 15.816 1.763 23.891 2.557l3.365-1.146s-1.01-.441-4.71-.882c0 0-2.356 0-4.711-.088 7.067-.705 14.469-1.676 17.498 1.851 0 0 7.066.353 11.44.441 5.384 0 3.029-1.058 2.692-1.939 0-.353 5.048-1.058 5.048-1.058 6.393.264 17.497-1.499 17.161 2.38 0 0 3.701.441 5.047.265 3.365-.53 6.73-1.235 10.095-1.764 10.768-1.587 10.768-1.499 21.536 1.323h7.402s2.692-.529 3.702-.353c8.748 1.763 14.468.176 22.545-.97 9.085-1.411 20.189-1.499 29.948.177 12.113 2.115 18.843 2.115 31.63-.265 7.066-1.323 14.133-2.292 22.208-1.234 13.124 1.851 27.929.969 41.726 1.234 10.094.265 21.198-.441 29.947.441 8.076.793 12.114.441 17.834-.706 3.029-.617 7.739-1.587 9.759-1.41 10.431 1.323 24.901-.97 32.975 2.292.674.265 5.722.088 5.722.088 5.384-2.997 12.113-1.234 18.843-.705 3.365.265 9.085.088 11.104-.441 6.429-1.758 13.092-1.568 20.178-1.201V138.046a3923.278 3923.278 0 0 1-32.988-.543M123.477 448.971s-1.682-.617-4.374-1.146c3.364-.441 5.384-.882 7.739-.97l3.365.97c-1.683.353-3.701.881-6.73 1.146m35.668-.176-1.01-.265s.337-.264.674-.441c.336.089 1.345.265 1.345.265l-1.009.441Zm30.396-281.177-.676-.439 2.694.257c-.673.091-1.346.092-2.018.182m14.109-4.357c-3.019 1.594-7.731 1.519-12.782.827l.671-.531c3.362-.538 7.06-1.077 10.759-1.615.675.439 1.688 1.053 1.352 1.319m14.131-.39 1.01-.003.001.176c-.337-.087-1.011-.173-1.011-.173m211.904 292.713-2.692-1.058c1.01-.088 3.366-.353 3.366-.353 1.345.089 2.355.353 4.71.794-2.692.264-5.384.617-5.384.617m334.266-285.43c-2.019-.083-5.724-.69-5.726-1.131-.341-.705.662-1.942 2.68-2.212 3.698-.538 8.743-.992 12.783-.739 6.395.336 12.457 1.202 20.201 2.063-10.082 2.496-19.842 2.345-29.938 2.019m94.219.103c-6.729.106-14.13.567-22.89-1.526 9.758-.202 16.15-.396 23.889-.416 0 0 2.023.612 2.361.964l-3.36.978Zm85.76-8.955s-1.012-.263-2.022-.436l4.036-.275s.338.176 1.012.261c-.672.179-3.026.45-3.026.45m137.542 299.66c-1.01-.088-3.028-.352-3.028-.352-.337-.177 1.009-.794 1.009-.794l3.028.441-1.009.705Zm100.611-.969c-1.346-.177-2.691-.441-4.374-.618 1.009-.176 3.028-.441 3.028-.441 1.683 0 3.028.265 4.711.441-1.009.177-3.365.618-3.365.618m23.971-299.738s-1.685-.436-4.716-.869c3.026-.537 6.724-1.252 6.724-1.252l4.041.782-6.049 1.339Zm51.828 1.45c-3.702.098-7.405-.421-12.118-.673 3.695-1.156 5.374-1.866 8.063-2.402 2.354-.447 5.382-.544 8.072-.815 1.351.878 3.374 1.754 3.381 3.165 0 0-4.706.718-7.398.725m243.966 1.471-.338-.352c.673.086 2.357.258 2.357.258-.673.002-1.346.092-2.019.094m121.377 297.434s-.673-.177-.673-.441l2.019-.265s1.01.177 1.682.353c-.672.176-3.028.353-3.028.353m148.82-299.031-.002-.353 1.684.172-1.682.181Z" fill="#f2c77c" fill-rule="evenodd" data-name="Trazado 1210"/></g></svg>