<svg xmlns="http://www.w3.org/2000/svg" width="26" height="20" viewBox="349 16 26 20"><g data-name="Boton"><path d="M351 16h22a2 2 0 0 1 2 2 2 2 0 0 1-2 2h-22a2 2 0 0 1-2-2 2 2 0 0 1 2-2z" fill="#212832" fill-rule="evenodd" data-name="Alto"/><path d="M351 24h22a2 2 0 0 1 2 2 2 2 0 0 1-2 2h-22a2 2 0 0 1-2-2 2 2 0 0 1 2-2z" fill="#212832" fill-rule="evenodd" data-name="Medio"/><path d="M351 32h22a2 2 0 0 1 2 2 2 2 0 0 1-2 2h-22a2 2 0 0 1-2-2 2 2 0 0 1 2-2z" fill="#212832" fill-rule="evenodd" data-name="Bajo"/></g></svg>