<svg xmlns="http://www.w3.org/2000/svg" width="1920" height="28" viewBox="-277 2681 1920 28"><path d="M1638.327 2686.796s-3.764-.884-6.169-.887c-15.328.178-30.323.453-45.649.822.093.06.191.125.301.205 0 0 .681.49.333.782-1.045.976-2.432 1.953-3.821 2.928l-6.152-2.059c-1.678-2.64-7.852-3.234-16.092-3.34-8.584-.108-17.509-.41-26.09-.81-6.862-.399-10.649.183-13.425 2.135-4.161 2.732-12.067 3.213-17.184.861-7.504-3.526-17.469-3.146-28.811-2.572-5.499.287-11.682.378-17.86.177-10.644-.207-21.28-.903-32.268-1.012-3.091-.004-6.881.871-8.954 1.651-2.415.78-3.462 1.951-6.93 4.195-3.041-3.423-7.48-5.09-17.095-5.198-8.586-.009-17.507-.507-26.094-.517l-5.868 2.046c-2.433 1.952-4.848 2.732-10.312.576-1.366-.49-4.104-1.08-6.165-1.082-9.613-.206-18.889-.02-28.5-.324-10.641-.402-21.31 1.15-32.268-1.012-4.109-.884-13.395.083-17.485-2.071-.341-.196-2.057-.198-3.429-.395-1.409 2.442-9.992 2.237-14.132 3.6-2.07.586-.032 2.15-.734 3.225-.353.587-4.144 1.462-4.144 1.462-2.061.096-5.142-.592-5.822-1.082-6.8-4.698-11.594-5.68-27.391-5.697-5.495-.006-10.993.184-16.147.374-6.53.286-12.721.866-8.292 3.41l-2.768 1.367c-6.526-.008-12.704-.21-20.599-.511 0 0-1.363-.686-2.385-1.274-7.48-5.09-21.907-5.008-37.713-4.34-14.091.668-28.177 1.044-42.262 1.322-17.176.275-34.007.452-50.837.532-5.153.092-7.906.578-6.899 2.142.998 2.151-2.797 3.419-10.013 3.606-7.56.285-14.43.376-19.201-2.073-4.772-2.546-11.608-4.703-17.413-6.958-2.782 2.343 1.98 5.475-12.779 4.873-1.373-.001-4.828 1.363-4.84 2.145-.367 1.661-3.804 1.853-8.269 1.848-5.495-.005-10.645-.11-16.138-.212-5.495-.007-8.235-.499-9.583-2.259-1.686-2.152-6.146-2.45-10.972-1.185-11.036 3.117-13.446 3.505-22.374 3.495-16.487.08-32.626-.035-49.109-.151-12.018-.209-23.703.366-34.306-2.578-6.156-1.766-14.414-.601-22.356 2.322-4.491 1.755-11.02 1.943-16.832.177-9.231-2.844-19.856-4.322-32.913-3.847-12.712.377-25.428.95-38.147 1.718-3.436.192-7.57 1.067-9.3 1.944-5.195 2.927-14.774.474-21.659 1.541-4.475.68-8.922-.498-10.273-2.064-1.349-1.662-5.471-1.667-9.259-.889-15.502 3.209-33.018 3.287-50.873 3.073-5.837-.104-18.553.469-9.224-3.333.69-.194-1.017-.978-1.017-.978-5.833-.3-12.009-.697-17.849-.606-5.498.19-4.486 1.461-3.13 2.733 1.007 1.565-3.122 2.05-7.583 1.849-4.464-.103-9.611-.4-13.38-.991-7.88-1.28-14.727-2.85-22.262-4.13-4.455-.689-10.627-1.38-15.097-.993-8.252.675-15.828 2.035-25.808 3.49 0 0-2.417.877-4.132.68-10.29-.89-18.551.372-27.834 1.144-2.75.191-9.257-1.086-9.257-1.086-.647-2.737-6.145-2.547-13.016-2.36-25.766.559-51.187 1.02-76.953 1.58-4.808.092-7.563.577-7.927 2.043-.355.683-3.806 1.853-3.806 1.853-8.587.088-17.171-.019-26.443-.126 0 0-1.706-.687-1.361-.784 7.956-3.9-4.765-3.034-10.253-3.431-10.638-.599-10.639-.5-14.466 2.916-.354.586-3.802 1.56-3.802 1.56-6.528.188-13.394-.015-19.917-.12l-.678-.587c3.441-.485 6.538-.97 11.014-1.65-11.647-2.064-23.676-1.49-35.004-1.796-2.403-.1-7.23 1.165-8.272 2.043-3.817 2.635-11.028 2.627-18.584 2.62-6.869-.008-13.394-.015-20.259-.218-3.435-.004-6.52-.398-9.95-.695l.361-1.172 24.383.026c-4.434-2.057-9.558-3.92-15.054-3.828-9.617-.01-22.327.171-28.191 1.924-11.726 3.408-20.589-1.097-30.224.163-5.505.679-11.011 1.455-16.856 1.937-6.534.58-13.76 1.55-19.937 1.25-13.728-.7-27.47-.422-41.208-.24-2.061-.003-4.467.092-7.896-.302 0 0-2.054-.394-2.736-.785-2.038-1.566-.283-4.203-8.873-3.822-3.437.192-5.877 2.633-8.644 3.998l-4.121-.004c-17.866.469-37.127 2.403-45.606-4.838-2.716-2.153-16.12-1.484-19.931.858-3.059 1.723-5.522 3.225-7.509 4.54-2.597-.801-6.488-1.509-12.104-2.02-5.832-.496-12.011-.697-17.838-1.388-15.429-1.776-30.926 1.14-46.71.145-79.125-5.72 24.068 10.06-51.497-1.228-5.139-.788-10.983-.403-15.763-2.363-4.44-1.666-15.079-2.166-23.657-2.664-5.148-.299-7.908.578-6.221 2.632 3.045 3.131.63 3.812-9.33 3.9-3.434-.004-6.864-.3-10.297-.402-10.238-.366-20.591-.432-30.897-.572v13.694c1.523.31 3.024.998 4.621 2.187 0 0 3.765.884 6.168.887 15.329-.178 30.323-.452 45.649-.822a7.266 7.266 0 0 1-.3-.205s-.68-.489-.333-.781c1.045-.977 2.433-1.953 3.821-2.93 2.051.688 6.152 2.06 6.152 2.06 1.678 2.64 7.851 3.234 16.092 3.34 8.584.108 17.509.41 26.089.81 6.863.399 10.65-.183 13.426-2.135 4.161-2.732 12.066-3.212 17.184-.861 7.504 3.526 17.468 3.146 28.811 2.572a214.548 214.548 0 0 1 17.86-.177c10.644.208 21.28.904 32.268 1.012 3.091.004 6.881-.871 8.953-1.651 2.416-.78 3.464-1.951 6.931-4.195 3.04 3.424 7.48 5.09 17.095 5.198 8.586.01 17.507.507 26.094.517l5.868-2.046c2.433-1.952 4.848-2.732 10.312-.576 1.365.49 4.104 1.08 6.165 1.082 9.613.206 18.889.02 28.5.324 10.641.402 21.31-1.15 32.268 1.012 4.109.884 13.395-.083 17.485 2.072.341.196 2.057.198 3.429.394 1.409-2.441 9.992-2.236 14.133-3.6 2.07-.585.031-2.15.733-3.225.354-.586 4.144-1.462 4.144-1.462 2.061-.096 5.143.592 5.822 1.082 6.8 4.698 11.593 5.68 27.391 5.697 5.495.006 10.993-.183 16.147-.373 6.53-.286 12.721-.866 8.292-3.412l2.768-1.365c6.526.007 12.705.209 20.599.51 0 0 1.363.686 2.385 1.274 7.48 5.09 21.906 5.008 37.714 4.34 14.09-.668 28.177-1.044 42.262-1.321 17.175-.276 34.006-.453 50.836-.532 5.152-.093 7.906-.578 6.899-2.143-.998-2.151 2.797-3.418 10.013-3.606 7.559-.285 14.429-.375 19.201 2.074 4.771 2.545 11.609 4.703 17.413 6.957 2.782-2.342-1.98-5.475 12.779-4.873 1.373.002 4.828-1.363 4.84-2.145.367-1.661 3.804-1.852 8.269-1.847 5.495.004 10.645.108 16.138.212 5.495.006 8.235.498 9.583 2.258 1.686 2.152 6.146 2.45 10.972 1.185 11.036-3.116 13.445-3.504 22.374-3.495 16.487-.08 32.625.035 49.11.151 12.016.209 23.702-.365 34.304 2.578 6.157 1.766 14.416.602 22.357-2.321 4.491-1.755 11.02-1.944 16.832-.178 9.231 2.845 19.856 4.322 32.913 3.848 12.713-.378 25.428-.95 38.147-1.72 3.436-.191 7.57-1.066 9.3-1.943 5.195-2.927 14.775-.474 21.659-1.541 4.475-.679 8.921.498 10.273 2.064 1.349 1.663 5.47 1.667 9.26.889 15.501-3.209 33.017-3.287 50.872-3.073 5.837.104 18.553-.469 9.224 3.333-.69.195 1.017.979 1.017.979 5.833.3 12.009.696 17.849.605 5.498-.19 4.487-1.461 3.131-2.732-1.008-1.566 3.121-2.05 7.582-1.85 4.464.103 9.611.402 13.38.992 7.88 1.279 14.726 2.85 22.262 4.13 4.455.688 10.627 1.38 15.098.992 8.252-.675 15.826-2.035 25.807-3.49 0 0 2.417-.877 4.131-.68 10.291.89 18.551-.37 27.835-1.143 2.751-.192 9.256 1.085 9.256 1.085.648 2.737 6.146 2.547 13.017 2.36 25.766-.559 51.186-1.02 76.952-1.579 4.809-.093 7.564-.578 7.928-2.044.355-.683 3.806-1.853 3.806-1.853 8.587-.088 17.171.02 26.442.126 0 0 1.707.687 1.362.784-7.956 3.901 4.765 3.035 10.254 3.432 10.637.598 10.639.5 14.466-2.917.352-.586 3.801-1.56 3.801-1.56 6.528-.188 13.393.015 19.917.12l.678.587c-3.441.485-6.539.97-11.014 1.65 11.647 2.064 23.676 1.491 35.004 1.797 2.403.1 7.229-1.166 8.273-2.044 3.816-2.635 11.027-2.627 18.583-2.619 6.868.007 13.394.014 20.259.217 3.436.004 6.52.399 9.95.695l-.361 1.173-24.383-.027c4.434 2.057 9.559 3.92 15.054 3.828 9.617.011 22.327-.171 28.191-1.924 11.726-3.408 20.589 1.098 30.225-.163 5.504-.678 11.01-1.455 16.855-1.937 6.534-.58 13.76-1.548 19.938-1.248 13.726.698 27.469.42 41.208.239 2.06.003 4.466-.092 7.895.302 0 0 2.055.393 2.735.785 2.039 1.566.283 4.203 8.875 3.82 3.436-.191 5.876-2.631 8.643-3.996l4.121.003c17.866-.469 37.126-2.403 45.606 4.84 2.716 2.152 16.12 1.482 19.932-.86 3.057-1.722 5.521-3.224 7.508-4.54 2.597.802 6.488 1.509 12.104 2.02 5.831.496 12.011.697 17.839 1.388 15.428 1.776 30.926-1.14 46.709-.145 79.124 5.72-24.068-10.06 51.496 1.228 5.14.788 10.984.403 15.763 2.363 4.441 1.666 15.08 2.166 23.659 2.664 5.147.299 7.907-.578 6.22-2.632-3.045-3.131-.631-3.812 9.33-3.9 3.434.004 6.864.301 10.296.402 10.256.367 20.626.432 30.95.573v-13.685c-1.542-.306-3.057-.994-4.673-2.197M61.235 2691.77s4.321.403 7.417.613l-4.142.698h-2.915a9.114 9.114 0 0 1-1.106-.232l.746-1.08Zm1243.478 6.46s-4.321-.402-7.417-.613l5.088-.857c1.87.018 3.075.392 3.075.392l-.746 1.078Zm254.158-6.462s-4.383.139-7.5.11c0 0-8.1-.078-12.422-.48l-2.994-1.115 1.911-.344c6.855.066 13.087.124 19.922.37l2.994 1.115s-1.288.35-1.911.344" fill="#f2c77c" fill-rule="evenodd" data-name="Minibar"/></svg>