<svg xmlns="http://www.w3.org/2000/svg" width="68.056" height="68.056" viewBox="649.57 1303.972 68.056 68.056"><g data-name="Icon"><path d="M707.566 1314a34.12 34.12 0 0 0-24.052-10.028c-8.503.225-17.43 3.411-23.895 9.88-6.83 6.826-9.836 15.573-10.049 24.064.016 8.747 3.219 17.63 9.836 24.244 6.65 6.65 15.529 9.852 24.276 9.868 8.703 0 17.206-3.25 24.036-10.076 6.465-6.466 9.892-15.157 9.908-23.872-.028-8.73-3.415-17.43-10.06-24.08m-3.807 43.993c-5.681 5.68-12.887 8.354-20.105 8.322-7.358.229-14.58-2.822-20.08-8.322-5.465-5.469-8.307-12.479-8.323-20.077 0-7.19 2.674-14.396 8.355-20.076 5.5-5.5 12.706-8.175 19.892-8.175 7.602.016 14.612 2.854 20.08 8.327 5.5 5.496 8.551 12.718 8.323 20.076.032 7.218-2.642 14.424-8.142 19.925" fill="#f2c77c" fill-rule="evenodd" data-name="Trazado 100"/><g data-name="Grupo 87"><path d="m696.598 1324.999-26 26" stroke-linejoin="round" stroke-linecap="round" stroke-width="6" stroke="#f2c77c" fill="transparent" data-name="Línea 5"/><path d="m670.598 1324.999 26 26" stroke-linejoin="round" stroke-linecap="round" stroke-width="6" stroke="#f2c77c" fill="transparent" data-name="Línea 6"/></g></g></svg>