<svg xmlns="http://www.w3.org/2000/svg" width="12.305" height="20" viewBox="648.73 412.001 12.305 20"><g data-name="Persons"><path d="M660.054 419.091h-10.342c-.529 0-.982.448-.982.97v4.291c0 .522.416.97.982.97h1.963c.113 0 .226.112.226.224v5.635c0 .447.378.82.868.82h4.228c.453 0 .868-.373.868-.82v-5.598c0-.11.075-.223.226-.223h1.963a.97.97 0 0 0 .981-.97v-4.292c0-.559-.453-1.007-.98-1.007" fill="#f2c77c" fill-rule="evenodd" data-name="Trazado 97"/><path d="M654.883 417.076c1.417 0 2.566-1.136 2.566-2.537 0-1.402-1.149-2.538-2.566-2.538-1.417 0-2.567 1.136-2.567 2.538 0 1.401 1.15 2.537 2.567 2.537" fill="#f2c77c" fill-rule="evenodd" data-name="Trazado 98"/></g></svg>