<svg xmlns="http://www.w3.org/2000/svg" width="250" height="48"><path d="M42.023 31.557c.742 0 1.486.103 2.339-.17-.248-.17-.33-.272-.44-.306-1.184-.17-2.368-.375-3.579-.545-.11 0-.219.068-.33.102-.495.204-.962.204-1.43-.102-.221-.136-.523-.17-.798-.204-.331-.069-.744.034-.853-.545 0 0-.303-.17-.469-.17-.605-.034-1.238 0-1.844-.068-.33-.034-.77.103-.797-.545l-.606-.374c-.275-.068-.55-.034-.825-.034-.964 0-1.927.034-2.863-.034-.742-.069-1.458-.102-2.201.068-.798.17-1.679.34-2.477.238-.688-.102-1.293-.17-1.953.103-.358.135-.744.17-1.102.203-1.128.068-2.283.103-3.411.171-.22.034-.44.067-.633.136-1.734.409-3.468.715-5.23.51-.633-.101-1.292-.068-1.925.034-1.019.137-1.955.545-3 .103-.358-.17-.853.034-1.266.068-.495.034-.963.067-1.458.067-.358 0-.744-.033-1.102-.033-.908.033-1.789.068-2.697.068-.33 0-.715.068-1.073-.408 1.101 0 2.037-.205 2.972-.375 1.79-.34 3.605-.409 5.422-.579.055 0 .138.068.138.068.715-.101 1.375-.136 2.036-.238.22-.033.44-.17.633-.136 1.073.17 2.064-.17 3.11-.34.523-.103 1.1.033 1.623-.035 1.239-.17 2.45-.408 3.66-.612 1.35-.239 2.064-.17 3.357.238.138.068.33.034.33.034.44-.238.716-.442 1.019-.612.248-.137.495-.307.743-.341.633-.102 1.376.17 1.706-.748.798-.069 1.129-.988 1.871-1.26a1.67 1.67 0 0 1-.22-.204c-.55-.103-1.045-.136-1.513-.238-.138 0-.276-.103-.413-.171l.275-.442c.385-.204.798-.34 1.21-.477.304-.068.69-.034.882-.578-.413-.103-.825-.137-1.156-.306-1.266-.613-2.504-.103-3.715.068-.578.068-1.156.306-1.734.34a50.751 50.751 0 0 1-3.22.101h-.44c-.744-.271-1.266-.271-1.816-.033-.33.136-.66.204-.99.238l-.386-.205c.082-.135.165-.306.275-.373.248-.103.687-.068.743-.24.247-.68.743-.612 1.155-.544 1.047.171 1.982-.476 3-.306.44-.442.854.204 1.321 0 .22-.102.551-.068.77.034.552.272 1.047.239 1.597.069.083-.954.083-.954.88-.851.386.033.689-.068.964-.58-.358-.067-.633-.101-.633-.101-.413-.17-.66-.306-.66-.306-.248-.75-.606-.75-1.02-.613-1.925.68-3.934.919-5.888 1.497-2.504.783-5.064 1.26-7.595 1.873-.744.17-1.486.271-2.34.441.138-.373.22-.646.303-.884-.66-.613-1.348-.102-2.009-.136-.633-.034-1.294 0-1.953 0 0 0 .192-.307.302-.34.385-.035.826.033 1.184-.103.853-.374 1.706-.715 2.614-.885.936-.17 1.789-.68 2.697-1.055.164-.068.358-.17.358-.17.577.272.908.102 1.292-.035.524-.203 1.074-.408 1.624-.441 1.624-.068 3.11-.784 4.678-1.157.744-.171 1.514-.307 2.257-.478.33-.033.689-.033 1.019-.135.165-.068.385-.341.44-.545.083-.34-.192-.477-.468-.545-.193-.034-.413 0-.413 0-1.238-.238-2.146.239-3.11.409-1.568.238-3.081.646-4.622.987-.881.17-1.734.51-2.642.442-.33-.034-.716.205-1.019.443-.413.306-.797.374-1.293.204.082-.85.33-1.463 1.155-1.6.303-.068.579-.238.882-.34.88-.272 1.706-.612 2.669-.647.66-.033 1.376-.34 1.981-.714.605-.341 1.211-.648 1.872-.851.219-.068.55-.205.605-.375.11-.442.385-.476.687-.544 1.432-.273 2.725-1.09 4.211-1.157.083 0 .193-.069.193-.069.11-.204.192-.34.192-.34 0-.239-.137-.409-.137-.409-.77-.17-1.459-.34-2.146-.476 0 0-.331-.103-.606-.17.606-.545.55-1.055.165-1.566 0 0 .247-.205.358-.307.44-.374.44-.374.165-1.02 0 0-.11-.341-.027-.409l.44-.239c.275.205.413.103.605-.135 0 0 .413-.238.633-.341.275-.136.578-.238.853-.34.386-.136.77-.273 1.156-.34.275-.07.55-.07.825-.103 0 0 .111.034.166.034h-.138c.33-.68 1.018-.374 1.459-.68.192.34.33.578.55 1.02.248-.748.44-1.293 1.21-1.055.304.102.607-.203.441-.646-.192-.443.11-.51.358-.647.138.238.275.443.413.647l-.11.306.083.034.027-.34c.082-.306.192-.579.303-.919.192.17.357.34.578.578 0-.544-.083-.85-.524-.952-.522-.102-.825-.58-1.293-.954.276-.17.44-.34.44-.34 1.24.102 2.257-.476 3.33-.443.936.068 1.872-.271 2.835 0 .358.103.743.068 1.101.035.577-.035 1.155-.136 1.733-.136.44 0 .936.306 1.349.204.523-.103.633.204.77.545l.303-.103c.825-.748 1.761-.816 2.78-.578.605.136 1.266.068 1.925.068.633.033 1.294.033 1.927.102.523.033 1.046.238 1.569.204.358-.034.88-.17 1.018-.442.275-.511.605-.511.991-.477.605.034 1.183.102 1.761.204.055.034.083.306.138.579.384-.137.853-.341 1.348-.511.247-.102.605-.34.77-.238.634.374 1.239.476 1.871-.034.028-.034.111 0 .111 0 .578.068 1.073-.374 1.569 0 .742-.443 1.569-.273 2.366-.273.551 0 1.101.103 1.624.069.715-.069 1.348.101 1.871.476.247-.204.496-.545.716-.545a10.37 10.37 0 0 1 2.036.41c.44.135.413.238.468-.41.771-.033 1.513-.136 2.23.273.191.137.494.137.632-.204.028-.069.192-.17.192-.17.936.101 1.79-.205 2.615.204.22.102.495.204.715.136C75.624.89 76.725.855 77.797.753c.854-.101 1.735 0 2.56-.204.964-.272 1.899-.135 2.834-.034 1.157.137 2.285.34 3.468.137.88-.171 1.817-.375 2.725.068 0 0 .467.102.633 0 .77-.477 1.568-.24 2.31-.068.662.17 1.212.17 1.817-.035 1.018-.374 2.064-.578 3.165-.34a5.772 5.772 0 0 0 1.513.204c1.514-.102 3-.442 4.514-.374.468.034.935.102 1.43.136l3.303.102c.33 0 .799-.102.991.102.495.476.963.306 1.513.17.386-.136.853-.033 1.294-.033.248 0 .495.033.715 0 .77-.103 1.541-.137 2.285.136l-.028.033c.192-.51.578-.408.936-.34.303.034.633.17.908.102 1.43-.374 2.834-.34 4.265-.101.33.033.605.271.908.441l-.11-.033.082.033s.441.035.661.035v.068-.035c.22-.033.413-.101.606-.101.413.033.798.17 1.183.136 1.376-.17 2.697.204 4.046.238l.22.137-.33.305c1.045.715 1.32.749 2.449.51.77-.17 1.568-.34 2.34-.27.467.033.934.237 1.43.066.577-.203 1.156-.102 1.706.137l.523.102c.495-.306 1.018-.102 1.514-.102.385-.034.742-.239 1.072-.477.111-.068.083-.408.083-.408l.028-.204c.247-.034.578.034.77-.137.661-.51 1.321-.714 2.12-.34.66.307 1.348.443 2.009-.101.164-.137.467-.171.467-.171.633.442.853-.307 1.183-.239.358.069.66.41 1.019.511.33.069.66 0 .99 0a55.309 55.309 0 0 1 2.394-.068l5.367.102s.054.035.082.035c.881.34 1.816.271 2.725.203.33-.034.633 0 .935 0 1.762-.067 3.55.443 5.311 0 0 0 .44 0 .633.035.276.033.551.068.853.068 1.211-.035 2.45-.103 3.661-.103 2.257-.034 4.513 0 6.77 0 .578 0 1.156.103 1.76 0 .55-.067 1.184-.067 1.624.477l-.027.069.055-.035c.055-.17.11-.476.11-.476 1.293-.102 2.504-.443 3.742-.102.689.203 1.377.646 2.092.067l.166-.034h2.752c1.43.069 2.889.137 4.32.205.55 0 1.073.034 1.624.034.908 0 1.844-.272 2.724.17 0 0 .137-.136.22-.17h-.027c.715-.239 1.403-.102 2.036.306-.082.306-.137.613-.193.919l.028-.034c-.275.034-.33.17-.358.477 0 .374.275.442.468.544l.44-.238c.11-.204.165-.476.137-.715-.054-1.09.386-1.566 1.24-1.191.44.238.798.17 1.21.068.385-.136.798-.205 1.211.068-.22.375-.385.646-.578.92.936.85.99.85 2.036.646a.813.813 0 0 1 .303 0c.523.136 2.285.101 2.724-.034l.028-.035h.028c.275-.136.605-.203.825-.408.248-.273.468-.238.716-.068.22.136.44.273.605.443.495.51.743.578 1.403.238 0 0 .331-.102.414.136l.192.17c.523-.476.716.272 1.074.375l.33.272c.412-.069.687-.239.962-.409.111-.272.028-.34-.192-.238-.66-.102-.688-.068-.605.783 0 0-.358-.238-.523-.375v-.306c.11-.85.165-.919.936-.714.825.204 1.651.442 2.531.714l.083-.306c.165-.375.742-.647 1.045-.51.33.17.661.272 1.019.408.22.102.467.204.302.578l.028-.034h-.028c.386.58.386.58-.275 1.294.716-.443 1.404.238 2.119-.102.715-.374 1.431.307 2.23-.034-.111-.613.384-.681.853-1.021-.083.544-.166.952-.249 1.497 1.019-.34 1.872-.306 2.753-.034.852.238 1.761.238 2.641.307.77.068 1.432.374 2.065.85.275.239.632.409.99.511.55.136 1.128.204 1.734.307-.055.34-.138.646-.193.919.77.476 1.403.51 1.927-.24.687.41 1.32.818 2.009 1.124.605.273.825.035.797-.68-.027-.409.056-.715.44-.783.662-.102 1.35-.205 1.955.272.22.136.413.307.66.374.689.205 1.349.477 1.761 1.192l.303.17c.55.068.853.544 1.211.885.358.34.716.681 1.1.92.69.476 1.57.714 1.597 1.87 0 0 .055.137.083.17.797.988.99 2.248 1.238 3.439 0 0 .082.579.248.749.44.544.413 1.055.164 1.702-.164.374-.192.85-.247 1.259-.165 1.157-.137 2.348-.963 3.268l-.082.306c.137.987-.331 1.838-.689 2.689-.22.612-.275 1.055.22 1.498.138.135.166.408.166.408.082.476.082.714.082.714.33 1.158.633 2.043.468 3.064l.055.51c.082 1.192.082 2.349-.66 3.37-.248.307-.44.647-.578 1.055-.33 1.124-1.24 1.736-1.899 2.587-.11.137-.33.17-.495.238-1.211.511-2.477.988-3.688 1.567-.688.34-1.348.612-2.092.714-.192.034-.385.068-.522.205-.77.578-1.68.68-2.505.952a18.17 18.17 0 0 1-2.256.545c-1.129.17-2.257.34-3.385.443-1.348.136-2.697.408-4.073.101-.33-.068-.66.035-1.018.035-.551.033-1.101.102-1.651.068a64.953 64.953 0 0 0-8.146-.103c-.633.035-1.266-.033-1.899-.068v-.102c.22-.17.467-.306.743-.442-.358-.578-.908-.443-1.349-.477-1.128-.068-2.229-.068-3.329-.272-.634-.102-1.376 0-1.817-.783-.055-.102-.33-.102-.33-.102-.523-.034-.908.034-1.183-.102-.44-.272-.082-.749-.11-1.123-.055-.715-.248-.987-.88-1.021-.578-.035-1.184-.035-1.763-.068-1.045-.035-2.09-.137-3.136-.17-1.376-.035-2.78.067-4.156 0-.743-.068-1.513 0-2.284-.273-.523-.205-1.21-.17-1.651.545-.275.442-.716.51-1.238.17-.44-.307-.909-.34-1.404-.34-.66 0-1.293.033-1.926.068-.909 0-1.789.068-2.697.068-.689 0-1.404-.068-2.119-.068h-3.33c-.44 0-.853-.035-1.128-.648.99-.033 1.899-.306 2.752-.101 1.266.34 2.477-.511 3.715-.069h.054c.633-.476 1.294-.238 1.927-.204.908.068 1.844.136 2.752.17 0 0 .468 0 .633-.102.137-.102.22-.34.33-.544l-.44-.272c-.798-.137-1.596-.273-2.394-.341-.413 0-.964-.034-1.239.204-.797.681-1.54.409-2.34.102-.329-.136-.632-.306-.962-.374-.358-.068-.743.034-.99-.408l-.304-.069c-.164.545-.412.069-.632.102-1.074 0-2.174-.34-3.22.103l.027-.035c-.11.171-.11.545-.44.273 0 0-.33-.238-.468-.238-1.733.068-3.44-.51-5.146-.103-.165.035-.303-.033-.468-.033-1.1.033-2.202.033-3.302.136-1.706.204-3.44.272-5.174.068-.412-.034-.853 0-1.266 0-.302 0-.604.034-.798-.374.66-.341 1.294-.408 1.927-.17.275.135.495.135.77.033.303-.136.66-.136.99-.17 1.542-.101 3.084-.204 4.597-.306a16.395 16.395 0 0 1 1.843 0c.524.034 1.019.238 1.541.205.91-.069 1.817-.273 2.753-.341.66-.034 1.349 0 2.008.136 1.404.306 2.78.272 4.155-.238.303-.103.661-.307.964-.238 1.376.238 2.807-.375 4.155.34 1.074-.102 2.12.579 3.193-.034h.44c.661.17 1.211.135 1.596-.58 0 0 .083-.135.165-.237-.22-.17-.412-.408-.605-.443-.357-.102-.715-.102-1.073-.068-.275 0-.523.17-.798.204h-3.716c-.633 0-1.266-.068-1.926-.033-.632.033-1.293-.41-1.9.135 0 0-.164-.033-.246-.033-.386 0-.744 0-1.1.033-.772.035-1.543.103-2.285.103-1.156-.035-2.284-.103-3.44-.136-.633-.035-1.293 0-1.926 0-.166 0-.331.101-.331.101-.716.307-1.266.648-1.816.137-.11-.102-.303 0-.467-.034-.936-.17-1.872-.103-2.835-.034-1.376.101-2.78 0-4.156 0-.797 0-1.596-.034-2.394-.069-.523-.033-1.019-.136-1.541-.101-.825.068-1.651.238-2.477.34-.44.068-.715-.204-1.018-.579.523-.272 1.101-.306 1.486-.919-.66-.272-1.293-.306-1.927-.272-.385 0-.77.068-1.183.034-.936-.068-1.899-.204-2.834-.273-1.596-.101-3.193.069-4.788.443 0 0-.303.068-.441.068a133.058 133.058 0 0 0-3.688-.068 28.56 28.56 0 0 1-3.412-.102c-1.211-.102-2.45.102-3.688.17h-.467c-1.129-.442-2.257-.136-3.385-.068-.798.034-1.597.034-2.394.068-1.322 0-2.67-.17-3.963 0-1.46.204-2.89.137-4.348.204-1.459.068-2.945-.034-4.404.374 0 0-.384.035-.522-.033-.853-.511-1.761-.408-2.614-.273-2.092.238-4.156.58-6.247.477-.496-.034-.991.102-1.46.17-.44.034-.934.204-1.265.034-.935-.443-1.871-.408-2.807-.34-.798.068-1.569-.035-2.394.136-.523.102-1.073.136-1.597.307-.384.17-3.605.272-4.017.135-.166-.068-.33-.203-.496-.238-.44-.102-.853-.204-1.265-.238-1.486-.17-2.945.238-4.43.034-1.102-.136-2.258.204-3.386.307-.55.033-1.1.033-1.65.102-.634.101-1.322-.137-1.818.544-.11.102-.44 0-.66 0-.193 0-.412-.068-.605 0-.66.205-1.349.476-1.982-.136l-.358-.102c-1.073-.035-2.146-.035-3.219-.035-.964.035-1.954.171-2.945-.101 0 0-.44-.069-.633 0-.743.272-1.513.306-2.283.204-.524-.068-1.074-.103-1.625-.17-.302-.034-.605-.034-.908-.034-1.21.136-2.394.272-3.577.34-1.046.102-2.064-.034-3.138.034-1.348.102-2.697-.034-4.017.375 0 0-.44-.035-.633-.069-.303-.033-.606-.101-.908-.101-.689-.069-1.376-.171-2.037-.137-.798.034-1.568-.136-2.366.238-.496.205-1.211.239-1.707.034a4.236 4.236 0 0 0-1.403-.34c-1.239-.068-2.45-.102-3.688-.136-1.596-.034-3.164.272-4.76.306-2.45.103-4.9-.068-7.348-.272-.55-.034-.55-.034-.523-.85.88 0 1.76.033 2.67 0 .522-.035 1.017-.273 1.54-.273 1.404.033 2.807.17 4.238.238.881.034 1.735.408 2.615.068.578.306 1.21.17 1.816.17.688 0 .688-.034.743-.816l.028-.443c.688-.136 1.32-.306 1.953.205.248.17.688.238.936.135 1.074-.51 2.12-.442 3.165-.135.44.135.853.135 1.266.033a5.493 5.493 0 0 1 1.265-.238c.964 0 1.955.136 2.918.068 1.238-.034 2.504-.136 3.715-.476.385-.136.853-.035 1.266.034.578.101 1.128.306 1.733.204a8.766 8.766 0 0 1 1.652-.136c.384 0 .798.068 1.156.17.66.238.66.272 1.017-.408-.33-.375-.687-.545-1.156-.443-.137.033-.302-.034-.467-.034-1.128-.068-2.285-.477-3.44-.103l-.193.035c-1.486 0-2.999-.068-4.485-.035-1.239.035-2.45.17-3.688.205-2.394.136-4.816.068-7.21-.035a1.877 1.877 0 0 1-.853-.306c-.412-.272-.798-.442-1.294-.34-.687.136-.715.068-.66-.85l-.027.033Zm89.795-25.153-.055.067.028-.033.027-.034ZM81.265 9.977v-.101.101Zm43.288-6.433.028-.033-.056.068.056-.035h-.028ZM222.22 5.69v.068l.056-.068-.056.034V5.69ZM120.04 1.162l-.027-.034.027.034Zm-2.009.782-.028.035.028-.035ZM25.125 13.245l-.027-.034h-.028.055v.034ZM198.553 6.2h.027v.069-.069h-.027Zm-1.348 3.132v.102l.027-.068-.055.034.028-.068ZM37.729 3.782c.138.069.276.103.414.171l-.414-.17-.302-.068.027-.068-.027.068.302.067Zm156.009-.203-.028.033.028-.033Zm-22.236-2.35v-.067l.027.034c.11.068.22.068.22.068l.083.102.028-.033s-.249-.069-.358-.103m60.212 34.208.028-.069-.028.034v.035ZM34.207 6.268l.083.068.027-.035-.055.035-.055-.068Zm163.108-3.95.027.035.055.034.166.136c-.028.205-.138.34-.275.477a.233.233 0 0 1-.083-.102h-.138s.165.033.248.068c0 0 .303.102.44.136-.028-.136-.083-.306-.083-.306-.137-.239-.192-.306-.192-.306l-.165-.171ZM40.15 4.737l.138.068v.068l-.027-.034-.111-.102Zm147.863-1.498.027.068.165-.034-.165.034-.027-.068Zm-57.187-.204.056.034c.027-.068.055-.102.082-.137 0 0-.027.035-.055.035l-.027.068h-.056Zm-10.842.578v.069l.138.034.055-.034c-.083 0-.138.034-.138.034s-.082-.068-.055-.103m71.165-1.361.138.102-.055-.136-.192-.068.054-.375h-.028l-.026.341.11.136M90.236 1.979s-.083.033-.11.068c.027.068.082.136.082.136l.165.068-.137.034V1.98Zm93.869-.886s-.083.24-.138.341l-.056-.068.028.068c.166 0 .303-.034.468-.034l.028-.034-.055.068-.275-.34Zm14.557.137c-.055.034-.083.068-.083.068.111.17.249.273.386.375l-.028.068.028-.035a2.562 2.562 0 0 0-.303-.476M42.49 3.034c.138.578.469.748.716 1.021h.028-.056c-.027-.443-.247-.714-.688-1.02m162.035 34.274c-.633.137-1.293.068-1.927.103h-.357c-.276 0-.551.067-.495.408.027.205.302.511.467.511.661.034 1.349.067 1.982-.103.633-.17 1.21-.374 1.843.068.385.273.661-.033 1.018-.442-.852-.578-1.624-.783-2.531-.545M17.475 19.508s-.193.374-.193.579l.44.204a6.44 6.44 0 0 0 1.074-.306c.138-.068.247-.273.358-.375-.137-.102-.275-.238-.44-.272-.083-.068-.22-.034-.579-.034 0 0-.412.034-.66.204m184.904-16.61c-.44-.341-.853-.306-1.24-.205.33.341.689.511 1.24.205m7.54.68c.385.17.687.273.99.409-.192-.408-.384-.85-.99-.408M29.144 25.022c.027.068.027.136.027.136.303 0 .578-.102.853-.17-.358-.272-.605-.068-.88.034m7.485 3.982c-.275-.476-.661-.374-1.046-.238.358.068.688.17 1.046.238M160.962 1.503l-.22-.239-.166.136.166.374.22-.271Zm57.515 2.79.11-.204s-.137-.102-.22-.102l-.11.136s.137.137.22.17M115.664 1.741l-.192-.273-.138.068c.055.102.11.238.166.341l.164-.136Zm96.786 2.587-.275-.205s-.055.17-.055.238l.166.239c.081-.137.164-.272.164-.272m-23.803-2.043-.138.137s.138.068.22.101l.137-.136s-.165-.102-.22-.102m-48.682-.612c-.027.033-.027.136-.027.136l.11.102.22-.205c-.138-.033-.22-.068-.303-.033m69.845.952-.083.137s.055.136.083.238l.11-.137s-.028-.238-.11-.238m-32.529 4.22-.11.172c0 .067.084.135.084.135s.164-.033.302-.135l-.276-.171ZM35.583 3.682c-.056-.034-.11-.102-.11-.102l-.193.033c.055.069.11.103.138.17l.165-.101Zm131.46 3.948s.165-.068.22-.102l-.11-.17-.192.101.083.171Zm26.887-4.97.137-.136s-.137-.101-.22-.136l-.137.136s.137.102.22.137m-10.815-1.498-.193-.136-.082.136.137.102.138-.102Zm11.64 6.57-.137-.103-.027.204s.11.103.247.205c0 0-.055-.239-.083-.307M16.512 19.68l-.083.203.138.068s.11-.101.193-.17c-.11-.068-.193-.136-.248-.101M65.276 2.217l.11-.136s-.137-.137-.22-.17l-.11.136c.083.068.137.136.22.17m6.605 7.25-.11.068.193.17.164-.068-.247-.17ZM66.267 1.74l-.11-.205-.248.102a.574.574 0 0 1 .083.136s.22 0 .275-.033M30.739 6.369a.533.533 0 0 1-.11-.101l-.11.101c0 .035.055.069.055.069s.139-.034.165-.069m-19.098 11.3.083-.033c-.028-.068-.055-.102-.055-.102l-.138.034.11.102ZM34.84 2.899l-.083-.102-.055.034V3c.055-.034.083-.069.138-.102m146.458.033s-.055-.101-.082-.17l-.165.17c0 .069.083.137.083.137.137 0 .164-.068.164-.137m-128.46.341-.11-.102c-.028 0-.083.068-.083.068l.083.103.11-.069Zm112.471-1.906c-.054-.068-.054-.136-.054-.136s-.138.034-.166.034l.083.136s.083-.034.137-.034m-85.172.375s.055-.103.082-.17l-.054-.068s-.083.101-.138.135l.11.103Zm147.367 22.566.137-.034-.11-.136-.138.034s.055.102.11.136m-88.09-21.376.084-.135s-.083-.068-.111-.068l-.082.102s.082.101.11.101m-92.74 4.29a3.14 3.14 0 0 0 .054-.069V7.05l-.137.034.082.136Zm13.099-5.004-.138-.068c-.028 0-.055.102-.083.136l.138.068.083-.136Zm141.973-.375-.11.035.054.067h.056v-.102Zm1.238.069-.055.068.11.068.054-.068s-.081-.035-.11-.068m-45.462 2.178h.083c-.028-.068-.055-.102-.055-.136 0 0-.055.034-.082.034l.054.102Zm48.82-.51-.027.068h.082l-.055-.068Zm-18.823 4.05-.11-.102-.055.034.083.102.082-.034Zm19.62.545h-.109v.102l.166-.034-.056-.068Zm-59.496-5.31.055-.136-.028-.068-.11.068.083.135ZM65.937 3c-.028-.034-.055-.034-.055-.034H65.8l.11.102.028-.068Zm15.686 1.498h.028l-.028-.137c0 .034-.027.034-.027.034l.027.103Zm109.005 1.02-.056-.033-.11.067.138.068c0-.033.028-.068.028-.101m-54.82 5.106-.11-.103-.055.068.111.102.055-.067Zm55.562-2.928-.082-.034s.028.068.055.102l.027-.068Zm-25.125-1.94h.083s-.028-.068-.055-.102l-.056.068.028.034Zm6.743-4.664-.055-.033-.028.068.083.034v-.069Zm2.56 2.724.054-.035-.055-.033v.068Zm7.402 9.905v-.068h-.055l.055.068Zm2.697-.715-.055-.068h-.11l.11.102s.027 0 .055-.034m.962-10.654.056-.068-.137-.068s-.028.068-.056.068l.137.068Zm2.23 6.807s.083-.067.11-.102l-.027-.033s-.083.033-.111.068l.028.067Zm8.916-1.259h.028v-.033l-.028.033Zm5.752-4.595c-.028 0-.028-.034-.028-.034s-.055.034-.083.034l.055.068.056-.068Zm6.687 2.45-.055-.033-.083.034.083.068c0-.034.028-.034.055-.068m.66-1.056-.027.103.137-.103h-.11ZM23.2 10.216l-.083-.034.027.068.056-.034Zm19.318-1.974c.027.034.055 0 .055 0l.028-.068h-.083v.068Zm7.485-5.072-.11.034.055.068.055-.034V3.17Zm2.12-1.6-.056.034.055.069V1.57Zm.852 3.915-.055-.035-.054.069.081.033.028-.067Zm7.788-3.132.028-.034s-.056-.034-.083-.034l.055.068m7.403 2.655-.055-.034.028.068.027-.034Zm4.871-3.267.027-.137h-.055l-.054.069.082.068Zm6.467 2.62.056-.033h-.083l.027.033Zm1.128 8.748.056.034.027-.102h-.055l-.028.068ZM83.027.889l.055-.034-.083-.033c-.028 0-.028.033-.028.033s.028.068.056.035M96.346.652l.027-.068h-.082l.055.068Zm.605 1.905-.082-.034.028.069.054-.035Zm1.459 7.149-.055.033.055.034v-.067Zm31.867-6.672v.034l.055-.034h-.055Zm.468 9.599v.068h.056l-.056-.068Zm12.577-6.297-.083-.103-.028.068s.028.068.056.068c.027 0 .027-.033.055-.033m-11.118-3.03.083.035v-.069l-.083.034ZM74.275 1.604l.028.069.055-.069h-.083Zm113.27 3.71.028.068.027-.033-.055-.035ZM85.78 15.73h.055l-.028-.068-.027.068Zm25.345-13.888v.069l.055-.034-.055-.035Zm38.5 37.442H150.036c.386-.034.799-.069 1.183-.069.44.035.881.205 1.294.137.633-.102.936.238 1.211.919-.275.068-.523.17-.743.204-.633.034-1.293.034-1.926.068-.33 0-.689.034-1.019-.068-.55-.17-1.073-.102-1.623.068a4.127 4.127 0 0 1-.908.102c-1.047 0-2.12-.068-3.166 0-.797.069-1.623-.102-2.42.647-.524.51-1.432.238-2.175.136-.743-.102-1.486-.102-2.202-.136-.77-.034-1.54 0-2.311-.034-.468 0-.936-.068-1.376-.068h-1.926c-.908-.035-1.817.034-2.697-.136-.825-.17-1.624-.034-2.45-.034-.385 0-.797.034-1.183 0-.77-.103-.77-.136-.853.748 0 0 .055.75-.33.885-.496.17-.99.477-1.486.443-.853-.034-1.486.34-2.12.851 0 0 .248.306.496.578-1.706.171-3.22.306-4.76.443-.743.068-1.542.136-2.312.136-.523 0-1.074-.102-1.624-.17-.468-.103-.964.034-1.376-.306l-.358.102c-1.32.85-2.78.612-4.21.714 0 0-.468-.136-.551-.272-.22-.34-.495-.34-.825-.34-.358 0-.743 0-1.1-.069-.496-.102-.772.137-1.129.478-.44.373-.056.816-.248 1.19-.303-.033-.578-.068-.853-.068-.77-.033-1.596.238-2.34-.306l-.357.068c-.385.273-.716.273-1.018-.205-.083-.101-.358-.067-.523-.067-.881-.068-1.79-.068-2.67-.136 0 0-.413-.17-.605-.273a24.349 24.349 0 0 1-.88-.714l-.083-.443.33.035c.33.714 1.073.578 1.597.884.384.205.742.17 1.128-.068.302-.204.633-.34.963-.375.66-.067 1.265-.203 1.76-.748 0 0 .47-.204.688-.204 1.68-.102 3.33-.205 4.982-.273.495-.034 1.018-.17 1.348.443l.33.068c.524.068 1.047.17 1.542.204.605 0 1.32.137 1.816-.136.523-.306 1.046-.375 1.569-.51.495-.136.66.17.742.612.661-.307.661-.307 1.46-.238.192 0 .412-.102.604-.204.908-.545 1.79-1.158 2.89-1.124h.468c.358-.101.523-.238.523-.238l-.138-.647c-.083-.102-.302-.068-.44-.068-1.486.034-2.945.103-4.43.17-.248 0-.496-.034-.743-.034-.991-.033-1.982-.646-2.972.103h-.276c-.743.034-1.513 0-2.284.034-1.101.068-2.202.34-3.303.101-.192-.033-.412.069-.633.103-.44.034-.853.102-1.265.102-.77.034-1.596-.17-2.312.034-1.101.306-2.174.409-3.275.409-.303 0-.633 0-.88.17-.303.204-.551.204-.881.17-.77-.069-1.54-.17-2.284-.204-.688-.035-1.376.067-2.037.034-.578 0-1.293.068-1.706-.239-.688-.476-1.348-.374-2.036-.442-.22-.034-.469.102-.633 0-.44-.307-.743-.034-1.183.204.302.307.413.613.082.92-.275.306-.523.271-.826.033 0 0-.44-.204-.687-.204-1.156 0-2.285-.068-3.413 0-.853.034-1.734.102-2.284 1.09-.165.306-.66.407-1.046.51-.248.067-.798.272-.578-.477l-.33-.306c-.33-.034-.66-.069-.99-.069-.744-.068-1.486-.101-2.202-.135 0 0-.358.034-.55.067-.606.103-1.211.24-1.817.273-.743.068-1.486.034-2.229.068-.715 0-1.459.137-2.201-.17-.22-.068-.524.034-.799.102-.192.034-.412.17-.412.17-1.266.068-2.34.17-3.44.17-1.68 0-3.386-.034-5.09-.067-.277 0-.552-.068-.827-.068l-3.22-.103c-.357-.034-.605.17-.853.477-.66.85-1.486.986-2.367.442-.137-.068-.303-.136-.44-.136-1.238.034-2.394-.68-3.715-.374-.606.135-1.293-.238-1.954-.306-1.238-.103-2.45-.137-3.687-.205 0 0-.386.102-.606.17-.275.103-.55.273-.853.306-.192.035-.495-.068-.55-.203-.193-.546-.633-.716-1.019-.784-.495-.068-.688-.442-.688-.783-.027-.544-.247-.782-.578-1.02-.412-.307-.825-.613-1.293-.954 1.129.273 2.284-.135 3.303.58.412.305.88.237 1.32-.07 0 0 .331-.204.496-.17.44.103.88.204 1.293.444.936.441 1.899.578 2.862.238 0 0 .358-.103.468-.068.578.306 1.183.136 1.761.238.853.136 1.707.408 2.532.408.715.034 1.514.34 2.092-.443l.44-.135c.853-.103 1.706-.137 2.559-.238 1.018-.171 2.119.271 3.028-.511.082-.068.192-.068.192-.068.578.238 1.074.476 1.596.68.22.102.468.239.689.239.495-.034.962-.137 1.43-.137.633-.033 1.293-.374 1.9.035.356.203.632.17.934-.137.275-.272.633-.34 1.019-.272.275.068.55.034.825 0 .936-.034 1.872-.102 2.835-.102.715-.034 1.43.068 2.147.102 0 0 .247-.034.357-.102.468-.34.991-.238 1.486-.102 0 0 .523.17.716.068.495-.34 1.073-.306 1.624-.306.578 0 1.128.135 1.706-.068.412-.17.963-.103 1.348.102.385.238.66.136 1.018.033.413-.102.826-.17 1.266-.238.413-.034.826 0 1.267-.034.356 0 .714-.101 1.1-.101.66-.035 1.376.135 2.01 0 .88-.239 1.76-.171 2.64-.239 1.129-.068 2.257.239 3.413 0 .578-.102 1.21.034 1.844.068.605 0 1.21.068 1.816 0 .606-.068 1.128-.272 1.431-.92.275-.646.825-.782 1.348-.612.496.204.963.103 1.459.068.798-.068 1.596-.102 2.395-.17.247-.033.44.102.412.408-.028.137-.22.307-.22.307-.825.102-1.54.17-2.257.204h-1.238s.193.341.33.341c.88.067 1.789.135 2.67.135 1.265 0 2.531-.068 3.797-.068.386 0 .77.137 1.156.205v.306c-1.045.205-2.147.102-3.358.443.386.102.633.238.881.238a68.187 68.187 0 0 0 2.697-.238c.661-.103.716-.205.661-.987.908-.273 1.844-.102 2.752-.102l.247.102c.083.442.358.579.66.544.304-.033.579-.204.854-.34.358-.136.688-.374 1.018-.409 1.073-.135 2.147-.17 3.22-.238.303 0 .605 0 .825.306 0 0 .523.307.853.17 1.294-.544 2.588-.952 4.018-.748.468.102.964-.103 1.431-.068.386.034.716.034 1.019.476.384.511 1.045.511 1.623.375.661-.205 1.266-.58 1.927-.647 1.375-.204 2.752-.307 4.127-.409.276 0 .551.239.936.409.633-.578 1.54-.613 2.45-.613.77 0 1.54 0 2.311.035.578 0 1.238-.239 1.624.544 0 0 .165.068.247.068.716.205 1.404.205 2.12.068.605-.136 1.21-.102 1.816-.136.275-.034.578 0 .853-.034.908-.17 1.844.204 2.724-.17l.386.068c.578.238 1.1-.034 1.486-.443.357-.408.742-.442 1.183-.408.357.034.688.034 1.018.068.605.034 1.211.068 1.844.102l-.083.51h-.412ZM118.36 43.13l.028-.034c.22-.306.44-.579.77-.987-.605.204-.742.544-.742.987l-.056.034Zm5.56-1.906s.11-.102.165-.17l-.11-.069s-.138.102-.221.137l.165.102Zm-52.976-3.812c.055.408.248.613.578.545.799-.239 1.596 0 2.394 0 .496 0 .964-.035 1.46-.171.522-.17 1.128 0 1.705 0 1.404-.034 2.834-.136 4.239-.136.605 0 1.238.204 1.843.238.302.034.578-.034.88-.068.386-.034.826-.17 1.184-.102 1.321.408 2.67.034 4.018.102 1.458.068 2.972-.306 4.376-.034 1.21.239 2.31-.102 3.467-.068 1.183.034 2.34-.102 3.522-.17 1.432-.102 2.863-.239 4.32-.34.607-.034 1.184.306 1.817.068 1.184-.477 2.422-.307 3.633-.341 1.239-.034 2.476-.17 3.742-.34-.412-.273-.908-.273-1.183-.783 0 0-.467-.103-.715-.103-2.092.069-4.184.137-6.275.24-.523 0-1.073.033-1.568.203-.633.238-1.266.205-1.872.136-.605-.033-1.155-.17-1.706.205l-.358.034c-.908-.272-1.816-.205-2.724-.069-.248.035-.495-.033-.744-.033a15.515 15.515 0 0 0-1.265-.068c-1.211 0-2.421.033-3.605.101-.413.035-.826.239-1.266.307-.468.068-.963.136-1.431.068-.743-.102-1.43-.068-2.174.035-.963.135-1.954.067-2.944 0-.799-.069-1.569-.205-2.367.067-.413.102-.908 0-1.376-.067-.495-.069-.964-.171-1.404.17 0 0-.468.136-.716.136-1.403.033-2.806.34-4.238.033-.164-.033-.33.102-.522.17-.137.035-.33.137-.33.137-.688-.477-1.35-.035-1.954-.238l-.44.136Zm-29.363.102c-.467-.408-.825-.307-1.128-.307a30.37 30.37 0 0 1-4.32-.204c-.468-.068-.963.068-1.432.204-.742.205-1.458.272-2.119-.238-.33-.272-.66-.136-.88.272-.083.171-.193.41-.193.41-.688.067-1.266.101-1.844.101-.413-.034-.88.034-1.128-.511-.055-.102-.33-.102-.33-.102-1.101.205-2.01.408-2.945.613l.11.205c1.046.068 2.037.374 3.11.34.77-.034 1.596-.17 2.367-.069 1.844.307 3.687.75 5.53 1.157a.87.87 0 0 1 .469.273c.66.613 1.375.715 2.174.511.66-.17 1.32-.34 1.981-.409.633-.102 1.239-.17 1.844-.136 1.156.068 2.284.068 3.358-.477.688-.306 1.403-.203 2.063.137.578.272 1.13.306 1.734.272.853-.068 1.706-.102 2.56-.239-.303-.067-.633-.135-1.129-.238.468-.306.743-.476 1.046-.646-.605-.17-1.128-.817-1.816-.341 0 0-.358.034-.551.068-1.458.068-2.944.103-4.403.205-.44.033-.853.306-1.265.476-.276.068-.551.17-.799.17-1.045-.135-2.092-.204-3.137-.034-.247.034-.578-.17-.799-.374 0 0-.219-.477-.219-.681.055-.375.33-.272.605-.272.413 0 .853-.068 1.486-.136m134.515 2.45c-.468-.101-.853-.714-1.376-.204 0 0-.302.035-.44-.034-1.238-.34-2.532-.272-3.798-.476-.358-.068-.77.135-1.128.34-.55.273-1.046.306-1.569-.034-.55-.34-1.183-.34-1.788-.34-.386.034-.743 0-1.13 0-.274 0-.467-.102-.439-.477 0-.102-.165-.34-.248-.34-.66-.068-1.348-.239-1.926.34-.413.408-.88.545-1.459.545-1.073.033-2.173.101-3.357.136.357.783.853.953 1.486.953.44-.034.909.034 1.376.034a88.429 88.429 0 0 1 3.027-.068c3.55-.035 7.072-.068 10.623-.136.715 0 1.43-.137 2.146-.238M81.788 44.9c-.386-.137-.798-.17-1.156.068l-.247.102c-1.541-.239-2.89.85-4.404.783-1.348-.068-2.723.272-4.072-.034-.276-.069-.578-.238-.881-.272-.192-.035-.413 0-.413 0l-.248.238c.578.204 1.184.408 1.761.646.194.069.496.137.331.545 0 0 .055.238.11.238.936.171 1.872.375 2.807-.034.302-.136.688-.17.991-.068 1.376.511 2.724.17 4.073-.068.44-.068.853-.578 1.265-.919v-.443c-.357-.306 0-.544 0-.544l.083-.238Zm46.728-9.36h-3.275c-1.431 0-2.834 0-4.238.034-1.293 0-2.586.068-3.852.135-.496.035-.99.069-1.459.171l-.467.307c-.111.135-.276.34-.22.476l.412.306c.467 0 .99 0 1.458-.136.523-.136.99-.102 1.514-.034.633.069 1.266.034 1.927-.034 1.183-.068 2.394-.068 3.55-.34 1.54-.341 3.11-.103 4.65-.238.22 0 .44 0 .633-.035.11-.034.275-.204.275-.204s-.165-.374-.275-.374c-.192-.068-.44 0-.633 0v-.035Zm13.623 8.169c.825.102 1.403.476 1.76 1.225.193.408.606.34.826.204.688-.408 1.486-.136 2.174-.408.275-.102.578-.102.798-.238.633-.375 1.32-.443 2.036-.511.275-.034.55-.034.799-.17.412-.17.633.204.962.272.083.034.194-.102.194-.102l-.028-.307c-.578-.306-1.183-.612-1.844-.374-.55.204-1.1.103-1.651-.034-.935-.204-1.871-.238-2.78.137-.385.135-.908.203-1.265.068-.606-.24-1.13.033-1.706 0 0 0-.166.135-.275.238m17.639-.613c.77.307 1.294.715 2.037.646.715-.068 1.458-.033 2.174.307.495.273 1.156.17 1.733.136.689-.068 1.404-.273 2.092-.408l2.229-.41.055-.203c-.165-.102-.33-.306-.468-.306-.716 0-1.403.102-2.119.102-.99 0-1.953-.068-2.944-.068-1.542 0-3.055-.375-4.79.204M58.508 47.42c-.138.101-.275.17-.606.374h3.385s.276-.476.358-.817c.055-.204.055-.545.055-.545-.275-.204-.633-.271-.77-.17-.413.375-.77.307-1.266.17-.633-.17-1.267-.408-1.981-.271-.414.101-.882-.171-1.322-.273 0 .817 0 .817-.743 1.089l-.412.204c-.414.34-.772.409-1.13-.272-.11.374-.192.612-.247.885.413.205.77.272 1.183.136.303-.102.661 0 .991-.034.275-.034.606-.068.606-.068.66-.92 1.238-.748 1.899-.408m66.074-3.268c1.046.545 1.954.885 3 .817 1.678-.068 3.33 0 4.953-.443.303-.102.578-.203.964-.306-.249-.408-.552-.51-.827-.51-1.265-.035-2.56-.205-3.77.033-1.293.239-2.532.137-3.797.239 0 0-.276.102-.523.17m-70.56-5.786c.358.272.715.579 1.128.782.44.205.853.443 1.403.375.91-.137 1.817-.102 2.753-.102.11-.035.22.034.358.068.742.17.742.17 1.238-.579-.247-.374-.578-.238-.908-.136-.33.103-.688.034-.799-.34-.137-.545-.522-.511-.88-.511-.578 0-1.184.035-1.789.068-.853 0-1.734 0-2.531.408l.027-.033Zm148 4.697c-.358-.613-.853-.783-1.514-.715-.66.102-1.32-.034-2.01-.034-.357 0-.714.068-1.072.102-.495.034-.99.102-1.459.102-.936.035-1.87.035-2.807.102 1.183.579 2.285 1.225 3.66.784.633-.171 1.349-.103 2.01 0 1.1.135 2.145 0 3.192-.375v.034ZM23.612 3.034c-.578.375-1.156.613-1.844.613-.44 0-.908.034-1.239.476 0 0-.22.068-.301.034-.716-.306-.936-.238-1.377.409-.137.238-.33.442-.578.748.22.103.413.238.413.238.357.035.55 0 .55 0 1.073-.476 2.037-.68 2.973-.986.605-.205 1.348-.58 1.403-1.532m-5.917 5.65c-.688.68-1.513.613-2.34.647l-.054-.544c-.083-.784.11-1.192.798-1.192.908 0 1.871 0 2.615.817-.386.102-.799.034-1.019.272m-.935-.408-.028.102s.083.034.138.034l.028-.068-.138-.068Zm6.852-5.242c.247.17.522.34.799.51.66.375 1.237.137 1.788-.306 1.018.647 1.018.647 1.679-.272.247.136.522.272.797.375l.303-.171-.082-.34c-.276-.17-.55-.375-.826-.375-1.045.068-2.092.238-3.11.341-.468.067-.907.17-1.348.238M188.95 44.696c.468.067.907.17 1.348.17 1.266.068 2.532.068 3.77.068.358 0 .743 0 1.074-.409-1.101-.374-2.174-.272-3.22-.203-.963.033-1.982-.137-2.972.101v.273Zm-118.857-6.91c-.247-.17-.275-.239-.33-.239-1.266.137-2.56-.203-3.825.035-.083.034-.165.136-.303.238 1.019.205 1.954.375 2.89.545.55.068.908-.408 1.568-.58m101.024.478c-1.624-.341-3.247 0-4.953-.035.632.477 2.201.477 4.953.035m65.634-31.11c.495.816 1.156.646 1.816.748-.467-.85-.688-.952-1.816-.749m-80.274 32.404c-.881-.17-1.734-.545-2.614-.102.853.306 1.733.068 2.614.102M213 1.298a54.321 54.321 0 0 0 2.366-.136V.923c-.798.035-1.595.103-2.394.137 0 0 .028.17.028.238m-4.156-.068h2.56c-.854-.375-1.707-.068-2.56-.204v.204ZM51.517 46.466c0 .442.22.613.522.613.303.033.633-.035.661-.41 0-.374-.358-.271-.578-.271 0 0-.385.033-.605.068m154.989-45.1c.633.476 1.128.238 1.651-.033-.687-.375-.88-.375-1.651.033m-67.312 37.781c.632.17 1.265.205 1.98-.068-.302-.51-.715-.306-1.045-.34-.303 0-.632.068-.935.137v.271Zm-3.22-3.267c-.633-.442-1.266-.136-1.9-.068.634.306 1.267.443 1.9.068m-102.07-3.472c.523.374 1.073.272 1.844.17-.716-.477-1.293-.272-1.844-.17m90.016 11.81c-1.018-.646-1.1-.646-1.513-.101.606.273.606.273 1.513.102m-59.992 1.328h1.926c-.55-.545-1.32-.545-1.926 0M235.072 6.336c-.44-.511-.799-.58-1.266-.205.385.408.715.58 1.266.205M47.994 46.874c.413-.374.413-.374.303-1.26 0 0-.413.24-.661.41.11.237.22.51.358.85m15.576-8.952c-.44-.238-.853-.443-1.43.035.577.271.99.441 1.43 0v-.035Zm79.944 1.157c-.33-.135-.633-.272-.963-.408l-.303.136.193.375c.357.033.715.033 1.045.033l.028-.136ZM85.09 45.002c.331.034.689.068 1.101.136-.385-.613-.523-.613-1.1-.34v.204ZM218.588 1.128h1.403v-.17l-1.403-.103v.273ZM67.808 47.487h1.21c-.467-.375-.467-.375-1.21 0m14.999-2.69c.412.239.88.205 1.513.07-.633-.307-1.074-.614-1.513-.036v-.033Zm-31.841 2.655c-.385-.135-.77-.135-1.293.375.578-.034.935-.068 1.293-.102v-.273Zm8.56-1.77c-.496-.578-.799-.238-1.074.103.302-.035.605-.068 1.073-.103M8.063 27.336c.303-.102.633-.17.936-.238v-.068c-.164 0-.33-.034-.33-.034-.33.068-.495.17-.66.205l.054.135ZM204.828 1.741c.082-.545-.11-.613-.605-.545.275.272.44.408.605.545M33.712 47.52h-.688c-.028.068-.028.102-.028.102.248.102.468.136.468.136s.248-.136.248-.239M222.33 3.238s-.11-.51-.165-.783l-.166.035.083.816a.668.668 0 0 0 .248-.068M82.807 44.83c-.358-.441-.689-.238-1.019.069h-.028c.358 0 .716.34 1.047-.102v.033Zm-15.88.511s-.11-.136-.192-.136h-.33l.055.238c.138.035.275 0 .44 0l.028-.102Zm80.77-9.598c.33.272.55.238.825-.102-.33-.204-.55-.239-.825.102m-90.539 4.289h-.99c.44.442.715.17.99 0M12.054 26.485c-.22-.136-.44-.17-.605.103-.028.034 0 .136 0 .136.275.17.467.102.605-.239M220.87.992l.33.068.193-.137-.33-.068s-.193.068-.193.137m-3.715 0c.22.101.33.17.413.17l.22-.239c-.082-.033-.165-.136-.22-.136 0 0-.192.103-.413.205m-.468-.102s-.44.033-.633.068l-.027.102.44.068s.22-.136.22-.238m-43.233 43.602c.303.408.633.17.964.101-.303-.033-.634-.068-.964-.101m-105.013.919s.357.068.522.136c.028-.068.028-.103.028-.103-.055-.068-.138-.136-.138-.136-.165-.067-.275-.034-.275-.034l-.137.137Zm71.908-9.293c.384-.102.633-.136.853-.204-.275-.238-.523-.375-.853.204M34.29 40.34c.054-.204.137-.34.137-.34s-.247-.273-.386-.307c-.027-.034-.11.068-.11.068s.11.273.359.58m6.164-7.591.22-.341a.85.85 0 0 1-.192-.136c-.139 0-.276.136-.276.136l.248.34Zm21.548 7.998c.357.205.605.205.825-.068l-.192-.17c-.193.068-.358.136-.633.238m91.172-1.94s.44.069.633.102c0 0 .027-.136.027-.204l-.44-.068-.22.17ZM51.682 41.258c.275 0 .523.034.798.068l.028-.239c-.275 0-.523-.033-.77-.067 0 .067-.029.17-.056.238m23.089-.954.44.103.138-.17c-.083-.034-.166-.102-.166-.102l-.412.17Zm-10.76.341h-.579v.137c.194 0 .358.033.358.033l.22-.17Zm-1.596-4.017s.358-.067.522-.067l-.027-.204c-.165.033-.358.068-.358.068l-.137.203Zm-2.78 4.187.467.137s.028-.17.056-.238c-.165-.035-.33-.035-.33-.035l-.193.136Zm109.004 4.12.193-.205s-.165-.17-.248-.17l-.165.17s.138.136.22.204m-28.537-9.02-.276-.102-.164.204a.797.797 0 0 1 .164.102s.166-.102.276-.204M39.71 40.917h-.412l-.027.103.413.067.026-.17ZM238.54 6.846l.164-.102c-.054-.068-.081-.17-.081-.17l-.194.068.111.204ZM53.994 38.398c-.166-.476-.358-.272-.689.035.331-.035.523-.035.716-.068l-.027.033Zm135.175 3.95h-.578v.1h.385l.193-.1Zm33.519-41.05c.055-.136.11-.238.11-.238l-.22-.205-.11.103s.082.135.22.34m-1.652 1.736s.11.204.193.34l.11-.136-.33-.204h.027Zm-161.209 33.9.111-.203s-.11-.068-.138-.068l-.165.205.192.067ZM205.432 1.163c.028.068.056.102.056.102h.11l-.027-.17s-.11.068-.139.068m-6.686 43.363.083.136.137-.17s-.083-.101-.137-.068l-.083.102M42.023 31.557c-.22-.034-.44-.068-.661-.068.22.272.44.136.688.034l-.027.034ZM10.485 26.86s-.11-.034-.164-.034l-.111.136s.11.068.165.034l.11-.136Zm44.802 10.143c0-.034.027-.068.027-.068l-.082-.067s-.027.067-.027.135h.082Zm7.733 8.816.137-.205-.247-.033c-.028 0-.083.033-.083.033l.193.205Zm90.759-2.315.22.17c.028 0 .083-.102.083-.102s-.083-.17-.166-.204c0 0-.054.068-.137.136m-2.34-2.484c.138.067.22.135.22.135s.138-.17.166-.238c-.028-.033-.11-.068-.11-.068l-.275.17m-62.964-5.037-.194.17.083.205.192-.102s-.026-.171-.081-.273m48.351.068.11-.136-.11-.102-.11.136.11.102Zm-84.594 4.186.164-.067-.164-.204-.11.136s.054.102.11.135m8.448-2.11-.083-.101c-.055.033-.082.067-.082.067l.055.17.11-.136ZM199.654 2.183s.028.136.055.17l.193.17.082-.136-.11-.136s-.192-.034-.248-.034l.028-.034Zm-37.895 42.853-.11-.068-.137.136.166.034c.026 0 .054-.068.081-.102M31.868 42.619h.082l-.028-.034-.054.034Zm123.617 2.485.166-.068-.083-.17-.166.068.083.17Zm-3.027-4.017c.027.035.027.068.027.068h.11l-.054-.135-.083.067ZM65.03 38.025c.027-.035.055-.035.055-.035L65 37.922l-.027.035.055.068ZM142 35.812l.083.102.165-.068s-.054-.102-.082-.102l-.166.068ZM69.404 38.91l.22-.17c-.054-.068-.11-.136-.165-.136l-.164.034c.027.102.055.17.11.272m.825 8.373s.11.035.137.068l.083-.033-.055-.103c-.055 0-.11.035-.165.068M55.947 37.106l.055-.171-.055-.067-.11.101c.028.034.082.068.11.137M223.155 2.422l.111.408.11-.068a1.576 1.576 0 0 0-.138-.205l-.083-.135Zm-51.433 42.274.027-.068s-.11-.035-.165-.035l-.027.103h.165Zm33.38-42.41-.082.033.055.103.056-.035-.028-.102Zm1.157.17-.055.034.055.033v-.068Zm16.896-.034c-.11.068-.192.101-.192.101s-.083.069-.055.102l.247-.203M46.04 47.725l-.054-.034-.028.068.054.034.028-.068Zm10.128-46.46.054-.069-.054-.034v.102Zm4.981 44.247c.027 0 .055-.033.055-.033l-.11-.103-.056.068s.083.068.111.068m6.191-9.155c-.055.033-.082.068-.082.068s.027.136.082.136l.083-.034-.083-.17Zm.193 9.019.028.068h.054s-.027-.068-.027-.136l-.055.068Zm-6.109-7.181.164-.069-.137-.136-.11.102.083.103Zm38.5.987.137-.068-.055-.068-.137.068.055.068Zm28.455 2.211c.054 0 .11.035.165.035 0-.035.027-.068.027-.068l-.083-.102s-.081.068-.11.135m28.923 3.677.083-.034-.027-.068-.11.034.054.068m1.294-6.33.028-.035h-.11c.027 0 .054.034.082.034m-4.073-.068-.11-.034s-.027.068-.027.102l.137-.068Zm-67.34 7.42v-.068l-.055.034.055.034Zm-4.596-10.04v-.069l-.054.034.054.034Zm82.559 2.484.055-.034-.055-.035v.069Zm-100.17 9.02v-.068l-.029-.035-.028.068.056.035Zm-26.723-6.74s.028-.033.055-.068l-.137-.068s-.027.068-.055.068c.055.035.083.035.137.068m-5.366 5.651-.055.034h.055v-.034Zm169.135-3.404s-.028-.204-.028-.272v.17l.028.102Zm2.504-40.811-.055.034.055.034V2.25Zm15.741.272V2.49l-.055.033h.055ZM63.57 37.957h.056l-.056-.035v.035ZM197.81.992h-.027.027Zm10.733 1.701.027-.068-.027.035v.033Zm12.246.069v.034-.034Zm.247.272c-.082-.103-.165-.17-.247-.272v.034s.138.17.22.238h.027ZM74.33 40.17v-.034h-.055l.055.034ZM139.386.958l-.027.034.027-.034Zm75.706 2.484-.22-.238.22.238Z" fill="#f2c77c" fill-rule="evenodd" data-name="Pincelada"/></svg>