<svg xmlns="http://www.w3.org/2000/svg" width="90.983" height="143" viewBox="915 193.999 90.983 143"><path d="M986.057 198.499c6.673 3.002 11.664 7.012 14.969 12.03 3.306 5.022 4.957 10.598 4.957 16.726 0 5.477-.941 10.172-2.818 14.084-1.88 3.914-4.18 7.11-6.902 9.586-2.722 2.48-6.221 5.155-10.498 8.021-5.055 3.653-8.749 6.782-11.081 9.39-2.333 2.61-3.5 6-3.5 10.173v3.716h-31.106v-4.89c0-6.388.939-11.738 2.819-16.041 1.878-4.305 4.114-7.694 6.708-10.173 2.591-2.476 5.896-5.087 9.914-7.826 3.628-2.476 6.252-4.597 7.874-6.357 1.619-1.76 2.431-3.879 2.431-6.357 0-2.999-1.006-5.313-3.014-6.944-2.01-1.63-4.894-2.446-8.651-2.446-7.519 0-14.712 3.784-21.58 11.346L915 215.32C926.922 201.108 942.539 194 961.852 194c9.46 0 17.528 1.501 24.205 4.5m-16.914 106.32c3.693 3.717 5.541 8.185 5.541 13.4 0 5.218-1.848 9.653-5.541 13.302-3.693 3.65-8.135 5.478-13.317 5.478-5.186 0-9.593-1.827-13.22-5.478-3.63-3.65-5.444-8.084-5.444-13.301 0-5.216 1.814-9.684 5.444-13.4 3.627-3.717 8.034-5.576 13.22-5.576 5.182 0 9.624 1.859 13.317 5.576" fill="#756955" fill-rule="evenodd" data-name="Icon"/></svg>