<svg xmlns="http://www.w3.org/2000/svg" width="17" height="17" viewBox="747.999 414.002 17 17"><g data-name="Time"><path d="M759.833 422.95c-.09-.092-.283-.186-.517-.239l-3.083.05.012-3.122c-.008-.188-.049-.328-.193-.47a.728.728 0 0 0-.47-.194.718.718 0 0 0-.48.193c-.14.14-.239.328-.23.517l-.012 3.785a.628.628 0 0 0 .192.471c.144.144.332.242.472.193l3.792-.004c.136.045.182 0 .284.004l.233-.234s.1-.098.147-.147c.04-.144.087-.193.046-.333-.007-.188-.049-.328-.193-.47" fill="#f2c77c" fill-rule="evenodd" data-name="Trazado 99"/><path d="M762.486 416.507a8.523 8.523 0 0 0-6.008-2.505c-2.124.056-4.354.852-5.969 2.468-1.706 1.705-2.457 3.89-2.51 6.011.004 2.185.804 4.404 2.457 6.056 1.661 1.661 3.88 2.461 6.064 2.465 2.174 0 4.298-.812 6.004-2.517a8.475 8.475 0 0 0 2.475-5.963 8.53 8.53 0 0 0-2.513-6.015m-.95 10.99a6.99 6.99 0 0 1-5.023 2.078c-1.838.057-3.642-.705-5.016-2.079a6.998 6.998 0 0 1-2.079-5.015c0-1.796.668-3.596 2.087-5.015a6.99 6.99 0 0 1 4.97-2.042 6.992 6.992 0 0 1 5.015 2.08c1.374 1.373 2.136 3.177 2.08 5.015a6.953 6.953 0 0 1-2.035 4.977" fill="#f2c77c" fill-rule="evenodd" data-name="Trazado 100"/></g></svg>