<svg xmlns="http://www.w3.org/2000/svg" width="43.068" height="70" viewBox="441.467 623 43.068 70"><g data-name="Persons"><path d="M481.1 647.815h-36.196c-1.852 0-3.437 1.568-3.437 3.395v15.019a3.394 3.394 0 0 0 3.437 3.395h6.87c.396 0 .791.392.791.784v19.722c0 1.565 1.323 2.87 3.038 2.87h14.798c1.586 0 3.038-1.305 3.038-2.87v-19.593c0-.388.263-.78.791-.78h6.87c1.849 0 3.434-1.439 3.434-3.399V651.34c0-1.957-1.585-3.525-3.433-3.525" fill="#f2c77c" fill-rule="evenodd" data-name="Trazado 97"/><path d="M463.002 640.763c4.96 0 8.981-3.976 8.981-8.88 0-4.907-4.021-8.883-8.98-8.883-4.96 0-8.985 3.976-8.985 8.883 0 4.904 4.025 8.88 8.984 8.88" fill="#f2c77c" fill-rule="evenodd" data-name="Trazado 98"/></g></svg>