<?xml version="1.0" standalone="no"?>
<!DOCTYPE svg PUBLIC "-//W3C//DTD SVG 20010904//EN"
 "http://www.w3.org/TR/2001/REC-SVG-20010904/DTD/svg10.dtd">
<svg version="1.0" xmlns="http://www.w3.org/2000/svg"
 width="700.000000pt" height="700.000000pt" viewBox="0 0 700.000000 700.000000"
 preserveAspectRatio="xMidYMid meet">
<metadata>
Created by potrace 1.14, written by Peter Selinger 2001-2017
</metadata>
<g transform="translate(0.000000,700.000000) scale(0.100000,-0.100000)"
fill="#000000" stroke="none">
<path d="M150 6969 c-66 -40 -61 209 -57 -2886 1 -1545 5 -2818 9 -2829 3 -12
9 -38 12 -58 25 -158 99 -344 199 -506 165 -264 447 -491 737 -592 93 -32 251
-68 335 -75 102 -9 4160 -9 4240 0 225 25 438 103 634 231 322 211 556 561
627 941 18 95 19 171 19 1430 0 732 -3 1353 -7 1380 -14 91 -20 118 -45 205
-102 352 -350 669 -668 852 -69 39 -227 108 -300 131 -44 13 -73 20 -185 42
-80 16 -310 19 -1730 19 -1507 0 -1566 -1 -1596 -18 -63 -38 -61 -8 -61 -816
0 -808 -2 -778 61 -816 29 -17 79 -18 1076 -19 575 -1 1063 -5 1085 -9 43 -9
121 -29 170 -44 78 -24 224 -103 295 -160 153 -123 256 -266 318 -442 38 -110
43 -139 48 -290 3 -97 -1 -145 -16 -212 -50 -228 -165 -415 -343 -557 -95 -75
-183 -122 -297 -161 -142 -48 -141 -48 -1413 -49 -1318 -1 -1247 -4 -1286 61
-20 31 -20 51 -21 596 0 510 1 566 16 592 21 34 31 37 162 34 158 -2 145 41
145 -456 0 -458 0 -456 65 -489 30 -15 127 -17 1048 -17 1080 0 1091 1 1206
49 235 99 385 317 393 571 10 309 -187 562 -501 644 -64 16 -147 18 -1259 19
-1166 1 -1191 1 -1216 20 -62 47 -59 -14 -59 1010 0 538 -4 944 -9 957 -10 25
-1710 1727 -1726 1729 -61 5 -80 3 -105 -12z"/>
</g>
</svg>
